<?xml version="1.0" encoding="UTF-8"?>
<svg xmlns="http://www.w3.org/2000/svg" xmlns:xlink="http://www.w3.org/1999/xlink" width="16pt" height="16pt" viewBox="0 0 16 16" version="1.1">
<g id="surface1">
<path style="fill:none;stroke-width:2.7;stroke-linecap:round;stroke-linejoin:round;stroke:rgb(100%,100%,100%);stroke-opacity:1;stroke-miterlimit:10;" d="M 0.53125 11.765625 L 0.546875 11.742188 L 0.550781 11.730469 L 0.558594 11.714844 L 0.5625 11.703125 L 0.570312 11.691406 L 0.574219 11.679688 L 0.582031 11.667969 L 0.585938 11.652344 L 0.59375 11.640625 L 0.597656 11.628906 L 0.605469 11.617188 L 0.609375 11.605469 L 0.617188 11.589844 L 0.621094 11.578125 L 0.628906 11.566406 L 0.632812 11.554688 L 0.640625 11.542969 L 0.644531 11.53125 L 0.652344 11.515625 L 0.65625 11.503906 L 0.664062 11.492188 L 0.667969 11.480469 L 0.683594 11.457031 L 0.6875 11.445312 L 0.695312 11.429688 L 0.699219 11.417969 L 0.707031 11.40625 L 0.710938 11.394531 L 0.71875 11.382812 L 0.722656 11.371094 L 0.730469 11.359375 L 0.734375 11.347656 L 0.742188 11.335938 L 0.746094 11.324219 L 0.753906 11.3125 L 0.757812 11.300781 L 0.765625 11.289062 L 0.769531 11.277344 L 0.777344 11.265625 L 0.78125 11.253906 L 0.789062 11.242188 L 0.792969 11.230469 L 0.800781 11.21875 L 0.804688 11.210938 L 0.820312 11.1875 L 0.824219 11.175781 L 0.832031 11.164062 L 0.835938 11.152344 L 0.84375 11.144531 L 0.847656 11.132812 L 0.855469 11.121094 L 0.859375 11.109375 L 0.867188 11.097656 L 0.871094 11.089844 L 0.878906 11.078125 L 0.882812 11.066406 L 0.890625 11.058594 L 0.894531 11.046875 L 0.902344 11.035156 L 0.90625 11.027344 L 0.914062 11.015625 L 0.917969 11.007812 L 0.925781 10.996094 L 0.929688 10.988281 L 0.9375 10.976562 L 0.941406 10.96875 L 0.949219 10.957031 L 0.953125 10.949219 L 0.960938 10.9375 L 0.96875 10.929688 L 0.972656 10.917969 L 0.980469 10.910156 L 0.984375 10.902344 L 0.992188 10.890625 L 0.996094 10.882812 L 1.003906 10.875 L 1.007812 10.867188 L 1.015625 10.855469 L 1.019531 10.847656 L 1.027344 10.839844 L 1.03125 10.832031 L 1.039062 10.824219 L 1.042969 10.816406 L 1.050781 10.808594 L 1.054688 10.796875 L 1.0625 10.789062 L 1.066406 10.78125 L 1.085938 10.761719 L 1.089844 10.753906 L 1.105469 10.738281 L 1.109375 10.730469 L 1.128906 10.710938 L 1.132812 10.703125 L 1.152344 10.683594 L 1.15625 10.675781 L 1.164062 10.671875 L 1.167969 10.664062 L 1.175781 10.660156 L 1.179688 10.652344 L 1.1875 10.648438 L 1.191406 10.640625 L 1.199219 10.636719 L 1.214844 10.621094 L 1.222656 10.617188 L 1.226562 10.609375 L 1.242188 10.601562 L 1.246094 10.597656 L 1.253906 10.59375 L 1.257812 10.585938 L 1.265625 10.582031 L 1.269531 10.578125 L 1.277344 10.574219 L 1.28125 10.570312 L 1.289062 10.566406 L 1.292969 10.5625 L 1.300781 10.558594 L 1.304688 10.558594 L 1.3125 10.554688 L 1.316406 10.550781 L 1.324219 10.546875 L 1.328125 10.542969 L 1.335938 10.542969 L 1.339844 10.539062 L 1.347656 10.535156 L 1.351562 10.535156 L 1.359375 10.53125 L 1.363281 10.527344 L 1.371094 10.527344 L 1.375 10.523438 L 1.390625 10.523438 L 1.394531 10.519531 L 1.402344 10.519531 L 1.40625 10.515625 L 1.425781 10.515625 L 1.429688 10.511719 L 1.5 10.511719 L 1.507812 10.515625 L 1.527344 10.515625 L 1.53125 10.519531 L 1.542969 10.519531 L 1.550781 10.523438 L 1.554688 10.523438 L 1.5625 10.527344 L 1.566406 10.527344 L 1.574219 10.53125 L 1.578125 10.535156 L 1.585938 10.535156 L 1.589844 10.539062 L 1.597656 10.542969 L 1.601562 10.542969 L 1.609375 10.546875 L 1.613281 10.550781 L 1.621094 10.554688 L 1.625 10.554688 L 1.632812 10.558594 L 1.636719 10.5625 L 1.644531 10.566406 L 1.648438 10.570312 L 1.664062 10.578125 L 1.667969 10.582031 L 1.675781 10.585938 L 1.679688 10.589844 L 1.6875 10.59375 L 1.691406 10.601562 L 1.699219 10.605469 L 1.703125 10.609375 L 1.710938 10.613281 L 1.714844 10.621094 L 1.722656 10.625 L 1.792969 10.695312 L 1.796875 10.703125 L 1.804688 10.707031 L 1.8125 10.714844 L 1.816406 10.722656 L 1.824219 10.730469 L 1.828125 10.738281 L 1.835938 10.742188 L 1.839844 10.75 L 1.847656 10.757812 L 1.851562 10.765625 L 1.859375 10.773438 L 1.863281 10.78125 L 1.871094 10.789062 L 1.875 10.796875 L 1.882812 10.804688 L 1.886719 10.8125 L 1.894531 10.820312 L 1.898438 10.832031 L 1.90625 10.839844 L 1.910156 10.847656 L 1.917969 10.855469 L 1.921875 10.863281 L 1.929688 10.875 L 1.933594 10.882812 L 1.949219 10.898438 L 1.953125 10.910156 L 1.960938 10.917969 L 1.964844 10.929688 L 1.972656 10.9375 L 1.976562 10.945312 L 1.984375 10.957031 L 1.988281 10.964844 L 1.996094 10.976562 L 2 10.984375 L 2.007812 10.996094 L 2.011719 11.003906 L 2.019531 11.015625 L 2.023438 11.023438 L 2.03125 11.035156 L 2.035156 11.046875 L 2.042969 11.054688 L 2.046875 11.066406 L 2.054688 11.078125 L 2.058594 11.085938 L 2.066406 11.097656 L 2.070312 11.109375 L 2.078125 11.121094 L 2.085938 11.128906 L 2.089844 11.140625 L 2.097656 11.152344 L 2.101562 11.164062 L 2.109375 11.175781 L 2.113281 11.183594 L 2.121094 11.195312 L 2.125 11.207031 L 2.132812 11.21875 L 2.136719 11.230469 L 2.144531 11.242188 L 2.148438 11.253906 L 2.15625 11.265625 L 2.160156 11.277344 L 2.167969 11.289062 L 2.171875 11.300781 L 2.179688 11.3125 L 2.183594 11.324219 L 2.191406 11.335938 L 2.195312 11.347656 L 2.203125 11.359375 L 2.207031 11.371094 L 2.214844 11.382812 L 2.21875 11.394531 L 2.234375 11.417969 L 2.238281 11.429688 L 2.246094 11.441406 L 2.25 11.453125 L 2.257812 11.464844 L 2.261719 11.476562 L 2.269531 11.492188 L 2.273438 11.503906 L 2.28125 11.515625 L 2.285156 11.527344 L 2.292969 11.539062 L 2.296875 11.550781 L 2.304688 11.566406 L 2.308594 11.578125 L 2.316406 11.589844 L 2.320312 11.601562 L 2.328125 11.613281 L 2.332031 11.625 L 2.339844 11.640625 L 2.34375 11.652344 L 2.351562 11.664062 L 2.355469 11.675781 L 2.363281 11.6875 L 2.371094 11.703125 L 2.375 11.714844 L 2.382812 11.726562 L 2.386719 11.738281 L 2.394531 11.75 L 2.398438 11.765625 L 2.40625 11.777344 L 2.410156 11.789062 L 2.417969 11.800781 L 2.421875 11.816406 L 2.429688 11.828125 L 2.433594 11.839844 L 2.441406 11.851562 L 2.445312 11.863281 L 2.453125 11.878906 L 2.457031 11.890625 L 2.464844 11.902344 L 2.46875 11.914062 L 2.476562 11.925781 L 2.480469 11.941406 L 2.488281 11.953125 L 2.492188 11.964844 L 2.507812 11.988281 L 2.511719 12 L 2.519531 12.015625 L 2.523438 12.027344 L 2.53125 12.039062 L 2.535156 12.050781 L 2.542969 12.0625 L 2.546875 12.074219 L 2.554688 12.085938 L 2.558594 12.097656 L 2.566406 12.113281 L 2.570312 12.125 L 2.578125 12.136719 L 2.582031 12.148438 L 2.589844 12.160156 L 2.59375 12.171875 L 2.601562 12.183594 L 2.605469 12.195312 L 2.613281 12.207031 L 2.617188 12.21875 L 2.625 12.230469 L 2.628906 12.242188 L 2.636719 12.253906 L 2.640625 12.265625 L 2.65625 12.289062 L 2.660156 12.300781 L 2.667969 12.3125 L 2.671875 12.320312 L 2.679688 12.332031 L 2.683594 12.34375 L 2.691406 12.355469 L 2.695312 12.367188 L 2.703125 12.378906 L 2.707031 12.386719 L 2.714844 12.398438 L 2.71875 12.410156 L 2.726562 12.421875 L 2.730469 12.433594 L 2.738281 12.441406 L 2.742188 12.453125 L 2.75 12.464844 L 2.753906 12.472656 L 2.761719 12.484375 L 2.765625 12.496094 L 2.773438 12.503906 L 2.777344 12.515625 L 2.785156 12.523438 L 2.792969 12.535156 L 2.796875 12.542969 L 2.804688 12.554688 L 2.808594 12.5625 L 2.816406 12.574219 L 2.820312 12.582031 L 2.828125 12.59375 L 2.832031 12.601562 L 2.839844 12.613281 L 2.84375 12.621094 L 2.851562 12.628906 L 2.855469 12.640625 L 2.863281 12.648438 L 2.867188 12.65625 L 2.875 12.664062 L 2.878906 12.675781 L 2.886719 12.683594 L 2.890625 12.691406 L 2.898438 12.699219 L 2.902344 12.707031 L 2.910156 12.714844 L 2.914062 12.726562 L 2.929688 12.742188 L 2.933594 12.75 L 2.941406 12.757812 L 2.945312 12.765625 L 2.964844 12.785156 L 2.96875 12.792969 L 2.976562 12.800781 L 2.980469 12.808594 L 3 12.828125 L 3.003906 12.835938 L 3.011719 12.839844 L 3.015625 12.847656 L 3.070312 12.902344 L 3.078125 12.90625 L 3.09375 12.921875 L 3.101562 12.925781 L 3.117188 12.941406 L 3.125 12.945312 L 3.128906 12.949219 L 3.136719 12.953125 L 3.140625 12.957031 L 3.148438 12.960938 L 3.152344 12.964844 L 3.160156 12.96875 L 3.164062 12.972656 L 3.171875 12.976562 L 3.175781 12.980469 L 3.183594 12.980469 L 3.1875 12.984375 L 3.195312 12.988281 L 3.199219 12.992188 L 3.207031 12.992188 L 3.214844 12.996094 L 3.21875 13 L 3.226562 13 L 3.230469 13.003906 L 3.238281 13.003906 L 3.242188 13.007812 L 3.25 13.007812 L 3.253906 13.011719 L 3.261719 13.011719 L 3.265625 13.015625 L 3.277344 13.015625 L 3.285156 13.019531 L 3.3125 13.019531 L 3.320312 13.023438 L 3.351562 13.023438 L 3.355469 13.019531 L 3.378906 13.019531 L 3.386719 13.015625 L 3.398438 13.015625 L 3.402344 13.011719 L 3.414062 13.011719 L 3.421875 13.007812 L 3.425781 13.007812 L 3.433594 13.003906 L 3.4375 13.003906 L 3.445312 13 L 3.449219 12.996094 L 3.457031 12.996094 L 3.460938 12.992188 L 3.46875 12.988281 L 3.472656 12.988281 L 3.480469 12.984375 L 3.484375 12.980469 L 3.5 12.972656 L 3.503906 12.96875 L 3.511719 12.964844 L 3.515625 12.964844 L 3.523438 12.960938 L 3.539062 12.945312 L 3.546875 12.941406 L 3.550781 12.9375 L 3.558594 12.933594 L 3.5625 12.929688 L 3.570312 12.925781 L 3.574219 12.917969 L 3.582031 12.914062 L 3.597656 12.898438 L 3.605469 12.894531 L 3.609375 12.886719 L 3.617188 12.882812 L 3.621094 12.875 L 3.628906 12.871094 L 3.648438 12.851562 L 3.652344 12.84375 L 3.660156 12.839844 L 3.664062 12.832031 L 3.671875 12.824219 L 3.675781 12.816406 L 3.683594 12.8125 L 3.6875 12.804688 L 3.695312 12.796875 L 3.699219 12.789062 L 3.707031 12.78125 L 3.710938 12.773438 L 3.71875 12.769531 L 3.722656 12.761719 L 3.730469 12.753906 L 3.734375 12.746094 L 3.742188 12.738281 L 3.746094 12.730469 L 3.753906 12.71875 L 3.757812 12.710938 L 3.773438 12.695312 L 3.777344 12.6875 L 3.785156 12.679688 L 3.789062 12.667969 L 3.796875 12.660156 L 3.800781 12.652344 L 3.808594 12.644531 L 3.8125 12.632812 L 3.820312 12.625 L 3.824219 12.617188 L 3.832031 12.605469 L 3.835938 12.597656 L 3.84375 12.585938 L 3.847656 12.578125 L 3.855469 12.570312 L 3.859375 12.558594 L 3.867188 12.550781 L 3.871094 12.539062 L 3.878906 12.53125 L 3.882812 12.519531 L 3.890625 12.507812 L 3.894531 12.5 L 3.902344 12.488281 L 3.90625 12.480469 L 3.921875 12.457031 L 3.925781 12.449219 L 3.933594 12.4375 L 3.9375 12.425781 L 3.945312 12.414062 L 3.949219 12.40625 L 3.957031 12.394531 L 3.960938 12.382812 L 3.96875 12.371094 L 3.972656 12.359375 L 3.980469 12.351562 L 3.984375 12.339844 L 3.992188 12.328125 L 3.996094 12.316406 L 4.003906 12.304688 L 4.007812 12.292969 L 4.015625 12.28125 L 4.019531 12.269531 L 4.027344 12.257812 L 4.03125 12.246094 L 4.039062 12.234375 L 4.042969 12.222656 L 4.058594 12.199219 L 4.0625 12.1875 L 4.070312 12.175781 L 4.074219 12.164062 L 4.082031 12.152344 L 4.085938 12.140625 L 4.09375 12.128906 L 4.097656 12.117188 L 4.105469 12.105469 L 4.109375 12.09375 L 4.117188 12.082031 L 4.121094 12.070312 L 4.128906 12.054688 L 4.132812 12.042969 L 4.140625 12.03125 L 4.144531 12.019531 L 4.152344 12.007812 L 4.15625 11.996094 L 4.164062 11.984375 L 4.167969 11.96875 L 4.175781 11.957031 L 4.179688 11.945312 L 4.195312 11.921875 L 4.199219 11.910156 L 4.207031 11.894531 L 4.210938 11.882812 L 4.21875 11.871094 L 4.222656 11.859375 L 4.230469 11.847656 L 4.234375 11.832031 L 4.242188 11.820312 L 4.246094 11.808594 L 4.253906 11.796875 L 4.257812 11.78125 L 4.265625 11.769531 L 4.269531 11.757812 L 4.277344 11.746094 L 4.28125 11.734375 L 4.289062 11.71875 L 4.292969 11.707031 L 4.300781 11.695312 L 4.304688 11.683594 L 4.3125 11.671875 L 4.316406 11.65625 L 4.324219 11.644531 L 4.328125 11.632812 L 4.34375 11.609375 L 4.347656 11.59375 L 4.355469 11.582031 L 4.359375 11.570312 L 4.367188 11.558594 L 4.371094 11.546875 L 4.378906 11.535156 L 4.382812 11.519531 L 4.390625 11.507812 L 4.394531 11.496094 L 4.402344 11.484375 L 4.40625 11.472656 L 4.414062 11.460938 L 4.417969 11.449219 L 4.425781 11.433594 L 4.429688 11.421875 L 4.4375 11.410156 L 4.441406 11.398438 L 4.449219 11.386719 L 4.453125 11.375 L 4.460938 11.363281 L 4.464844 11.351562 L 4.480469 11.328125 L 4.484375 11.316406 L 4.492188 11.304688 L 4.496094 11.292969 L 4.503906 11.28125 L 4.507812 11.269531 L 4.515625 11.257812 L 4.519531 11.246094 L 4.527344 11.234375 L 4.53125 11.222656 L 4.539062 11.210938 L 4.542969 11.203125 L 4.550781 11.191406 L 4.554688 11.179688 L 4.5625 11.167969 L 4.566406 11.15625 L 4.574219 11.144531 L 4.578125 11.136719 L 4.585938 11.125 L 4.589844 11.113281 L 4.597656 11.101562 L 4.601562 11.09375 L 4.617188 11.070312 L 4.621094 11.0625 L 4.628906 11.050781 L 4.632812 11.039062 L 4.640625 11.03125 L 4.644531 11.019531 L 4.652344 11.011719 L 4.65625 11 L 4.664062 10.988281 L 4.667969 10.980469 L 4.675781 10.96875 L 4.679688 10.960938 L 4.6875 10.949219 L 4.691406 10.941406 L 4.699219 10.933594 L 4.703125 10.921875 L 4.710938 10.914062 L 4.714844 10.90625 L 4.722656 10.894531 L 4.726562 10.886719 L 4.734375 10.878906 L 4.738281 10.867188 L 4.746094 10.859375 L 4.75 10.851562 L 4.765625 10.835938 L 4.769531 10.824219 L 4.777344 10.816406 L 4.78125 10.808594 L 4.789062 10.800781 L 4.792969 10.792969 L 4.800781 10.785156 L 4.804688 10.777344 L 4.8125 10.769531 L 4.816406 10.761719 L 4.824219 10.753906 L 4.828125 10.746094 L 4.835938 10.742188 L 4.839844 10.734375 L 4.847656 10.726562 L 4.851562 10.71875 L 4.871094 10.699219 L 4.875 10.691406 L 4.882812 10.6875 L 4.886719 10.679688 L 4.894531 10.671875 L 4.902344 10.667969 L 4.90625 10.660156 L 4.914062 10.65625 L 4.917969 10.648438 L 4.925781 10.644531 L 4.929688 10.636719 L 4.9375 10.632812 L 4.953125 10.617188 L 4.960938 10.613281 L 4.964844 10.605469 L 4.972656 10.601562 L 4.976562 10.597656 L 4.984375 10.59375 L 4.988281 10.589844 L 4.996094 10.585938 L 5 10.582031 L 5.007812 10.578125 L 5.011719 10.574219 L 5.019531 10.570312 L 5.023438 10.566406 L 5.039062 10.558594 L 5.042969 10.554688 L 5.050781 10.550781 L 5.054688 10.546875 L 5.0625 10.546875 L 5.066406 10.542969 L 5.074219 10.539062 L 5.078125 10.535156 L 5.085938 10.535156 L 5.089844 10.53125 L 5.097656 10.53125 L 5.101562 10.527344 L 5.109375 10.527344 L 5.113281 10.523438 L 5.121094 10.523438 L 5.125 10.519531 L 5.136719 10.519531 L 5.144531 10.515625 L 5.15625 10.515625 L 5.160156 10.511719 L 5.234375 10.511719 L 5.238281 10.515625 L 5.257812 10.515625 L 5.261719 10.519531 L 5.273438 10.519531 L 5.28125 10.523438 L 5.285156 10.523438 L 5.292969 10.527344 L 5.296875 10.527344 L 5.304688 10.53125 L 5.308594 10.53125 L 5.324219 10.539062 L 5.328125 10.539062 L 5.335938 10.542969 L 5.339844 10.546875 L 5.347656 10.546875 L 5.351562 10.550781 L 5.359375 10.554688 L 5.363281 10.558594 L 5.371094 10.5625 L 5.375 10.566406 L 5.382812 10.570312 L 5.386719 10.574219 L 5.394531 10.578125 L 5.398438 10.582031 L 5.40625 10.585938 L 5.410156 10.589844 L 5.417969 10.59375 L 5.421875 10.597656 L 5.429688 10.601562 L 5.433594 10.609375 L 5.441406 10.613281 L 5.453125 10.625 L 5.460938 10.628906 L 5.519531 10.6875 L 5.523438 10.695312 L 5.53125 10.699219 L 5.535156 10.707031 L 5.554688 10.726562 L 5.558594 10.734375 L 5.566406 10.742188 L 5.570312 10.75 L 5.578125 10.757812 L 5.582031 10.765625 L 5.589844 10.773438 L 5.59375 10.78125 L 5.601562 10.785156 L 5.609375 10.796875 L 5.613281 10.804688 L 5.621094 10.8125 L 5.625 10.820312 L 5.632812 10.828125 L 5.636719 10.835938 L 5.644531 10.84375 L 5.648438 10.851562 L 5.65625 10.863281 L 5.660156 10.871094 L 5.667969 10.878906 L 5.671875 10.886719 L 5.679688 10.898438 L 5.683594 10.90625 L 5.691406 10.914062 L 5.695312 10.925781 L 5.703125 10.933594 L 5.707031 10.945312 L 5.714844 10.953125 L 5.71875 10.960938 L 5.726562 10.972656 L 5.730469 10.980469 L 5.738281 10.992188 L 5.746094 11 L 5.75 11.011719 L 5.757812 11.023438 L 5.761719 11.03125 L 5.769531 11.042969 L 5.773438 11.050781 L 5.78125 11.0625 L 5.785156 11.074219 L 5.792969 11.082031 L 5.796875 11.09375 L 5.804688 11.105469 L 5.808594 11.117188 L 5.816406 11.125 L 5.820312 11.136719 L 5.828125 11.148438 L 5.832031 11.160156 L 5.839844 11.171875 L 5.84375 11.179688 L 5.851562 11.191406 L 5.855469 11.203125 L 5.863281 11.214844 L 5.867188 11.226562 L 5.882812 11.25 L 5.886719 11.261719 L 5.894531 11.273438 L 5.898438 11.285156 L 5.90625 11.296875 L 5.910156 11.308594 L 5.917969 11.320312 L 5.921875 11.332031 L 5.929688 11.34375 L 5.933594 11.355469 L 5.941406 11.367188 L 5.945312 11.378906 L 5.953125 11.390625 L 5.957031 11.402344 L 5.964844 11.414062 L 5.96875 11.425781 L 5.976562 11.4375 L 5.980469 11.449219 L 5.988281 11.460938 L 5.992188 11.472656 L 6 11.488281 L 6.003906 11.5 L 6.011719 11.511719 L 6.015625 11.523438 L 6.03125 11.546875 L 6.035156 11.558594 L 6.042969 11.574219 L 6.046875 11.585938 L 6.054688 11.597656 L 6.058594 11.609375 L 6.066406 11.621094 L 6.070312 11.636719 L 6.078125 11.648438 L 6.082031 11.660156 L 6.089844 11.671875 L 6.09375 11.683594 L 6.101562 11.699219 L 6.105469 11.710938 L 6.113281 11.722656 L 6.117188 11.734375 L 6.125 11.746094 L 6.128906 11.761719 L 6.136719 11.773438 L 6.140625 11.785156 L 6.148438 11.796875 L 6.152344 11.8125 L 6.167969 11.835938 L 6.171875 11.847656 L 6.179688 11.859375 L 6.183594 11.875 L 6.191406 11.886719 L 6.195312 11.898438 L 6.203125 11.910156 L 6.207031 11.921875 L 6.214844 11.9375 L 6.21875 11.949219 L 6.226562 11.960938 L 6.230469 11.972656 L 6.238281 11.984375 L 6.242188 11.996094 L 6.25 12.011719 L 6.253906 12.023438 L 6.261719 12.035156 L 6.265625 12.046875 L 6.273438 12.058594 L 6.277344 12.070312 L 6.285156 12.082031 L 6.289062 12.09375 L 6.296875 12.109375 L 6.304688 12.121094 L 6.308594 12.132812 L 6.316406 12.144531 L 6.320312 12.15625 L 6.328125 12.167969 L 6.332031 12.179688 L 6.339844 12.191406 L 6.34375 12.203125 L 6.351562 12.214844 L 6.355469 12.226562 L 6.363281 12.238281 L 6.367188 12.25 L 6.375 12.261719 L 6.378906 12.273438 L 6.386719 12.285156 L 6.390625 12.296875 L 6.398438 12.308594 L 6.402344 12.316406 L 6.410156 12.328125 L 6.414062 12.339844 L 6.421875 12.351562 L 6.425781 12.363281 L 6.433594 12.375 L 6.4375 12.382812 L 6.453125 12.40625 L 6.457031 12.417969 L 6.464844 12.425781 L 6.46875 12.4375 L 6.476562 12.449219 L 6.480469 12.460938 L 6.488281 12.46875 L 6.492188 12.480469 L 6.5 12.488281 L 6.503906 12.5 L 6.511719 12.511719 L 6.515625 12.519531 L 6.523438 12.53125 L 6.527344 12.539062 L 6.535156 12.550781 L 6.539062 12.558594 L 6.546875 12.570312 L 6.550781 12.578125 L 6.558594 12.585938 L 6.5625 12.597656 L 6.570312 12.605469 L 6.574219 12.617188 L 6.589844 12.632812 L 6.59375 12.640625 L 6.601562 12.652344 L 6.605469 12.660156 L 6.613281 12.667969 L 6.617188 12.675781 L 6.625 12.683594 L 6.628906 12.695312 L 6.636719 12.703125 L 6.640625 12.710938 L 6.648438 12.71875 L 6.652344 12.726562 L 6.660156 12.734375 L 6.664062 12.742188 L 6.671875 12.75 L 6.675781 12.757812 L 6.683594 12.761719 L 6.6875 12.769531 L 6.695312 12.777344 L 6.699219 12.785156 L 6.738281 12.824219 L 6.742188 12.832031 L 6.75 12.835938 L 6.753906 12.84375 L 6.761719 12.847656 L 6.765625 12.855469 L 6.773438 12.859375 L 6.789062 12.875 L 6.796875 12.878906 L 6.8125 12.894531 L 6.820312 12.898438 L 6.824219 12.902344 L 6.832031 12.90625 L 6.835938 12.910156 L 6.84375 12.914062 L 6.847656 12.917969 L 6.855469 12.921875 L 6.859375 12.925781 L 6.867188 12.925781 L 6.875 12.929688 L 6.878906 12.933594 L 6.886719 12.9375 L 6.890625 12.9375 L 6.898438 12.941406 L 6.902344 12.941406 L 6.910156 12.945312 L 6.914062 12.945312 L 6.921875 12.949219 L 6.925781 12.949219 L 6.933594 12.953125 L 6.957031 12.953125 L 6.960938 12.957031 L 6.980469 12.957031 L 6.984375 12.953125 L 7.003906 12.953125 L 7.011719 12.949219 L 7.023438 12.949219 L 7.027344 12.945312 L 7.035156 12.945312 L 7.039062 12.941406 L 7.046875 12.9375 L 7.050781 12.9375 L 7.058594 12.933594 L 7.0625 12.929688 L 7.070312 12.925781 L 7.074219 12.921875 L 7.082031 12.917969 L 7.085938 12.914062 L 7.09375 12.910156 L 7.097656 12.90625 L 7.105469 12.902344 L 7.109375 12.894531 L 7.117188 12.890625 L 7.128906 12.878906 L 7.132812 12.871094 L 7.140625 12.867188 L 7.148438 12.859375 L 7.152344 12.851562 L 7.160156 12.84375 L 7.164062 12.835938 L 7.171875 12.828125 L 7.175781 12.820312 L 7.183594 12.8125 L 7.1875 12.804688 L 7.195312 12.792969 L 7.199219 12.785156 L 7.207031 12.777344 L 7.210938 12.765625 L 7.21875 12.753906 L 7.222656 12.746094 L 7.230469 12.734375 L 7.234375 12.722656 L 7.242188 12.710938 L 7.246094 12.699219 L 7.253906 12.6875 L 7.257812 12.675781 L 7.265625 12.660156 L 7.269531 12.648438 L 7.277344 12.632812 L 7.28125 12.621094 L 7.296875 12.589844 L 7.300781 12.574219 L 7.308594 12.558594 L 7.3125 12.542969 L 7.320312 12.527344 L 7.324219 12.511719 L 7.332031 12.496094 L 7.335938 12.476562 L 7.34375 12.460938 L 7.347656 12.441406 L 7.355469 12.421875 L 7.359375 12.402344 L 7.367188 12.386719 L 7.371094 12.363281 L 7.378906 12.34375 L 7.382812 12.324219 L 7.390625 12.304688 L 7.394531 12.28125 L 7.402344 12.261719 L 7.40625 12.238281 L 7.414062 12.214844 L 7.417969 12.191406 L 7.433594 12.144531 L 7.4375 12.121094 L 7.445312 12.097656 L 7.449219 12.070312 L 7.457031 12.046875 L 7.460938 12.019531 L 7.46875 11.992188 L 7.472656 11.964844 L 7.480469 11.9375 L 7.484375 11.910156 L 7.492188 11.882812 L 7.496094 11.851562 L 7.503906 11.824219 L 7.507812 11.792969 L 7.515625 11.765625 L 7.519531 11.734375 L 7.527344 11.703125 L 7.53125 11.671875 L 7.539062 11.640625 L 7.542969 11.605469 L 7.550781 11.574219 L 7.554688 11.539062 L 7.5625 11.507812 L 7.570312 11.472656 L 7.574219 11.4375 L 7.582031 11.402344 L 7.585938 11.367188 L 7.59375 11.332031 L 7.597656 11.292969 L 7.605469 11.257812 L 7.609375 11.21875 L 7.617188 11.183594 L 7.621094 11.144531 L 7.628906 11.105469 L 7.632812 11.066406 L 7.640625 11.027344 L 7.644531 10.988281 L 7.652344 10.945312 L 7.65625 10.90625 L 7.664062 10.863281 L 7.667969 10.824219 L 7.675781 10.78125 L 7.679688 10.738281 L 7.6875 10.695312 L 7.691406 10.652344 L 7.699219 10.605469 L 7.703125 10.5625 L 7.710938 10.519531 L 7.71875 10.472656 L 7.722656 10.429688 L 7.730469 10.382812 L 7.734375 10.335938 L 7.742188 10.289062 L 7.746094 10.242188 L 7.753906 10.195312 L 7.757812 10.148438 L 7.765625 10.101562 L 7.769531 10.050781 L 7.777344 10.003906 L 7.78125 9.953125 L 7.789062 9.90625 L 7.792969 9.855469 L 7.800781 9.804688 L 7.804688 9.753906 L 7.8125 9.703125 L 7.816406 9.652344 L 7.824219 9.601562 L 7.828125 9.550781 L 7.835938 9.5 L 7.839844 9.445312 L 7.855469 9.34375 L 7.859375 9.289062 L 7.867188 9.238281 L 7.871094 9.183594 L 7.878906 9.128906 L 7.882812 9.078125 L 7.890625 9.023438 L 7.894531 8.96875 L 7.902344 8.914062 L 7.90625 8.859375 L 7.914062 8.808594 L 7.917969 8.753906 L 7.925781 8.699219 L 7.929688 8.644531 L 7.9375 8.589844 L 7.941406 8.535156 L 7.949219 8.476562 L 7.953125 8.421875 L 7.960938 8.367188 L 7.964844 8.3125 L 7.972656 8.257812 L 7.976562 8.203125 L 7.984375 8.144531 L 7.992188 8.089844 L 7.996094 8.035156 L 8.003906 7.980469 L 8.007812 7.925781 L 8.015625 7.867188 L 8.019531 7.8125 L 8.027344 7.757812 L 8.03125 7.703125 L 8.039062 7.648438 L 8.042969 7.59375 L 8.050781 7.535156 L 8.054688 7.480469 L 8.0625 7.425781 L 8.066406 7.371094 L 8.074219 7.316406 L 8.078125 7.261719 L 8.085938 7.207031 L 8.089844 7.152344 L 8.097656 7.097656 L 8.101562 7.046875 L 8.109375 6.992188 L 8.113281 6.9375 L 8.121094 6.882812 L 8.125 6.832031 L 8.132812 6.777344 L 8.140625 6.726562 L 8.144531 6.671875 L 8.152344 6.621094 L 8.15625 6.566406 L 8.164062 6.515625 L 8.167969 6.464844 L 8.175781 6.410156 L 8.179688 6.359375 L 8.1875 6.308594 L 8.191406 6.257812 L 8.199219 6.207031 L 8.203125 6.160156 L 8.210938 6.109375 L 8.214844 6.058594 L 8.222656 6.011719 L 8.226562 5.960938 L 8.234375 5.914062 L 8.238281 5.867188 L 8.246094 5.816406 L 8.25 5.769531 L 8.257812 5.722656 L 8.261719 5.675781 L 8.269531 5.628906 L 8.277344 5.585938 L 8.28125 5.539062 L 8.289062 5.492188 L 8.292969 5.449219 L 8.300781 5.40625 L 8.304688 5.359375 L 8.3125 5.316406 L 8.316406 5.273438 L 8.324219 5.230469 L 8.328125 5.1875 L 8.335938 5.148438 L 8.339844 5.105469 L 8.347656 5.066406 L 8.351562 5.023438 L 8.359375 4.984375 L 8.363281 4.945312 L 8.371094 4.90625 L 8.375 4.867188 L 8.382812 4.828125 L 8.386719 4.789062 L 8.394531 4.753906 L 8.398438 4.714844 L 8.414062 4.644531 L 8.417969 4.605469 L 8.425781 4.570312 L 8.429688 4.535156 L 8.4375 4.503906 L 8.441406 4.46875 L 8.449219 4.433594 L 8.453125 4.402344 L 8.460938 4.371094 L 8.464844 4.335938 L 8.472656 4.304688 L 8.476562 4.273438 L 8.484375 4.246094 L 8.488281 4.214844 L 8.496094 4.183594 L 8.5 4.15625 L 8.507812 4.125 L 8.511719 4.097656 L 8.519531 4.070312 L 8.523438 4.042969 L 8.53125 4.015625 L 8.535156 3.988281 L 8.542969 3.960938 L 8.546875 3.9375 L 8.554688 3.910156 L 8.5625 3.886719 L 8.566406 3.863281 L 8.574219 3.835938 L 8.578125 3.8125 L 8.585938 3.789062 L 8.589844 3.769531 L 8.597656 3.746094 L 8.601562 3.722656 L 8.609375 3.703125 L 8.613281 3.679688 L 8.621094 3.660156 L 8.625 3.640625 L 8.632812 3.621094 L 8.636719 3.601562 L 8.644531 3.582031 L 8.648438 3.5625 L 8.65625 3.546875 L 8.660156 3.527344 L 8.667969 3.511719 L 8.671875 3.492188 L 8.679688 3.476562 L 8.683594 3.460938 L 8.699219 3.429688 L 8.703125 3.414062 L 8.710938 3.398438 L 8.714844 3.382812 L 8.722656 3.371094 L 8.726562 3.355469 L 8.734375 3.34375 L 8.738281 3.328125 L 8.746094 3.316406 L 8.75 3.304688 L 8.757812 3.292969 L 8.761719 3.28125 L 8.769531 3.269531 L 8.773438 3.257812 L 8.78125 3.246094 L 8.785156 3.238281 L 8.792969 3.226562 L 8.796875 3.21875 L 8.804688 3.207031 L 8.808594 3.199219 L 8.816406 3.191406 L 8.820312 3.179688 L 8.835938 3.164062 L 8.839844 3.15625 L 8.847656 3.148438 L 8.851562 3.140625 L 8.859375 3.136719 L 8.863281 3.128906 L 8.886719 3.105469 L 8.894531 3.101562 L 8.898438 3.09375 L 8.90625 3.089844 L 8.910156 3.085938 L 8.917969 3.082031 L 8.921875 3.078125 L 8.929688 3.074219 L 8.933594 3.070312 L 8.941406 3.066406 L 8.945312 3.0625 L 8.953125 3.0625 L 8.957031 3.058594 L 8.964844 3.054688 L 8.96875 3.054688 L 8.976562 3.050781 L 8.988281 3.050781 L 8.996094 3.046875 L 9.011719 3.046875 L 9.019531 3.042969 L 9.035156 3.042969 L 9.042969 3.046875 L 9.066406 3.046875 L 9.070312 3.050781 L 9.082031 3.050781 L 9.089844 3.054688 L 9.09375 3.054688 L 9.101562 3.058594 L 9.105469 3.0625 L 9.113281 3.0625 L 9.121094 3.066406 L 9.125 3.070312 L 9.132812 3.070312 L 9.136719 3.074219 L 9.144531 3.078125 L 9.148438 3.082031 L 9.15625 3.085938 L 9.160156 3.089844 L 9.167969 3.09375 L 9.171875 3.097656 L 9.179688 3.101562 L 9.183594 3.105469 L 9.191406 3.109375 L 9.195312 3.113281 L 9.203125 3.117188 L 9.207031 3.125 L 9.214844 3.128906 L 9.242188 3.15625 L 9.25 3.160156 L 9.257812 3.167969 L 9.261719 3.175781 L 9.269531 3.179688 L 9.273438 3.1875 L 9.28125 3.191406 L 9.285156 3.199219 L 9.292969 3.207031 L 9.296875 3.214844 L 9.304688 3.21875 L 9.308594 3.226562 L 9.316406 3.234375 L 9.320312 3.242188 L 9.328125 3.25 L 9.332031 3.257812 L 9.339844 3.265625 L 9.34375 3.273438 L 9.351562 3.28125 L 9.355469 3.289062 L 9.363281 3.296875 L 9.367188 3.304688 L 9.375 3.3125 L 9.378906 3.320312 L 9.386719 3.328125 L 9.390625 3.335938 L 9.398438 3.347656 L 9.40625 3.355469 L 9.410156 3.363281 L 9.417969 3.371094 L 9.421875 3.382812 L 9.429688 3.390625 L 9.433594 3.398438 L 9.441406 3.410156 L 9.445312 3.417969 L 9.453125 3.429688 L 9.457031 3.4375 L 9.464844 3.449219 L 9.46875 3.457031 L 9.476562 3.46875 L 9.480469 3.476562 L 9.488281 3.488281 L 9.492188 3.496094 L 9.5 3.507812 L 9.503906 3.515625 L 9.511719 3.527344 L 9.515625 3.539062 L 9.523438 3.546875 L 9.527344 3.558594 L 9.542969 3.582031 L 9.546875 3.589844 L 9.554688 3.601562 L 9.558594 3.613281 L 9.566406 3.625 L 9.570312 3.632812 L 9.578125 3.644531 L 9.582031 3.65625 L 9.589844 3.667969 L 9.59375 3.679688 L 9.601562 3.691406 L 9.605469 3.703125 L 9.613281 3.710938 L 9.617188 3.722656 L 9.625 3.734375 L 9.628906 3.746094 L 9.636719 3.757812 L 9.640625 3.769531 L 9.648438 3.78125 L 9.652344 3.792969 L 9.660156 3.804688 L 9.664062 3.816406 L 9.679688 3.839844 L 9.683594 3.851562 L 9.691406 3.863281 L 9.695312 3.878906 L 9.703125 3.890625 L 9.707031 3.902344 L 9.714844 3.914062 L 9.71875 3.925781 L 9.726562 3.9375 L 9.730469 3.949219 L 9.738281 3.960938 L 9.742188 3.972656 L 9.75 3.988281 L 9.753906 4 L 9.761719 4.011719 L 9.765625 4.023438 L 9.773438 4.035156 L 9.777344 4.046875 L 9.785156 4.0625 L 9.789062 4.074219 L 9.796875 4.085938 L 9.800781 4.097656 L 9.808594 4.109375 L 9.8125 4.125 L 9.828125 4.148438 L 9.832031 4.160156 L 9.839844 4.171875 L 9.84375 4.1875 L 9.851562 4.199219 L 9.855469 4.210938 L 9.863281 4.222656 L 9.867188 4.234375 L 9.875 4.25 L 9.878906 4.261719 L 9.886719 4.273438 L 9.890625 4.285156 L 9.898438 4.300781 L 9.902344 4.3125 L 9.910156 4.324219 L 9.914062 4.335938 L 9.921875 4.347656 L 9.925781 4.363281 L 9.933594 4.375 L 9.9375 4.386719 L 9.945312 4.398438 L 9.949219 4.410156 L 9.957031 4.421875 L 9.964844 4.4375 L 9.96875 4.449219 L 9.976562 4.460938 L 9.980469 4.472656 L 9.988281 4.484375 L 9.992188 4.496094 L 10 4.511719 L 10.003906 4.523438 L 10.011719 4.535156 L 10.015625 4.546875 L 10.023438 4.558594 L 10.027344 4.570312 L 10.035156 4.582031 L 10.039062 4.59375 L 10.046875 4.605469 L 10.050781 4.617188 L 10.058594 4.632812 L 10.0625 4.644531 L 10.070312 4.65625 L 10.074219 4.667969 L 10.082031 4.679688 L 10.085938 4.691406 L 10.101562 4.714844 L 10.105469 4.726562 L 10.113281 4.734375 L 10.117188 4.746094 L 10.125 4.757812 L 10.128906 4.769531 L 10.136719 4.78125 L 10.140625 4.792969 L 10.148438 4.804688 L 10.152344 4.816406 L 10.160156 4.828125 L 10.164062 4.835938 L 10.171875 4.847656 L 10.175781 4.859375 L 10.183594 4.871094 L 10.1875 4.882812 L 10.195312 4.890625 L 10.199219 4.902344 L 10.207031 4.914062 L 10.210938 4.921875 L 10.21875 4.933594 L 10.222656 4.945312 L 10.230469 4.953125 L 10.234375 4.964844 L 10.242188 4.976562 L 10.25 4.984375 L 10.253906 4.996094 L 10.261719 5.003906 L 10.265625 5.015625 L 10.273438 5.023438 L 10.277344 5.035156 L 10.285156 5.042969 L 10.289062 5.054688 L 10.296875 5.0625 L 10.300781 5.074219 L 10.308594 5.082031 L 10.3125 5.089844 L 10.320312 5.101562 L 10.324219 5.109375 L 10.332031 5.117188 L 10.335938 5.128906 L 10.34375 5.136719 L 10.347656 5.144531 L 10.355469 5.152344 L 10.359375 5.160156 L 10.367188 5.171875 L 10.371094 5.179688 L 10.386719 5.195312 L 10.390625 5.203125 L 10.398438 5.210938 L 10.402344 5.21875 L 10.410156 5.226562 L 10.414062 5.234375 L 10.421875 5.242188 L 10.425781 5.25 L 10.445312 5.269531 L 10.449219 5.277344 L 10.457031 5.285156 L 10.460938 5.292969 L 10.46875 5.296875 L 10.472656 5.304688 L 10.503906 5.335938 L 10.507812 5.34375 L 10.515625 5.347656 L 10.527344 5.359375 L 10.535156 5.363281 L 10.539062 5.371094 L 10.546875 5.375 L 10.5625 5.390625 L 10.570312 5.394531 L 10.585938 5.410156 L 10.59375 5.414062 L 10.597656 5.417969 L 10.605469 5.421875 L 10.609375 5.425781 L 10.617188 5.429688 L 10.621094 5.433594 L 10.628906 5.4375 L 10.632812 5.441406 L 10.640625 5.445312 L 10.644531 5.445312 L 10.652344 5.449219 L 10.65625 5.453125 L 10.671875 5.460938 L 10.675781 5.460938 L 10.683594 5.464844 L 10.6875 5.464844 L 10.695312 5.46875 L 10.699219 5.472656 L 10.707031 5.472656 L 10.710938 5.476562 L 10.71875 5.476562 L 10.722656 5.480469 L 10.734375 5.480469 L 10.742188 5.484375 L 10.757812 5.484375 L 10.765625 5.488281 L 10.835938 5.488281 L 10.84375 5.484375 L 10.859375 5.484375 L 10.867188 5.480469 L 10.871094 5.480469 L 10.878906 5.476562 L 10.890625 5.476562 L 10.894531 5.472656 L 10.902344 5.46875 L 10.90625 5.46875 L 10.914062 5.464844 L 10.917969 5.464844 L 10.925781 5.460938 L 10.929688 5.457031 L 10.9375 5.457031 L 10.945312 5.453125 L 10.949219 5.449219 L 10.957031 5.445312 L 10.960938 5.441406 L 10.96875 5.441406 L 10.972656 5.4375 L 10.980469 5.433594 L 10.984375 5.429688 L 10.992188 5.425781 L 10.996094 5.421875 L 11.003906 5.417969 L 11.019531 5.402344 L 11.027344 5.398438 L 11.03125 5.394531 L 11.039062 5.390625 L 11.042969 5.382812 L 11.050781 5.378906 L 11.066406 5.363281 L 11.074219 5.359375 L 11.078125 5.351562 L 11.085938 5.347656 L 11.117188 5.316406 L 11.121094 5.308594 L 11.128906 5.304688 L 11.132812 5.296875 L 11.140625 5.289062 L 11.144531 5.28125 L 11.152344 5.277344 L 11.15625 5.269531 L 11.164062 5.261719 L 11.167969 5.253906 L 11.175781 5.246094 L 11.179688 5.238281 L 11.1875 5.230469 L 11.191406 5.222656 L 11.199219 5.214844 L 11.203125 5.207031 L 11.210938 5.199219 L 11.214844 5.191406 L 11.230469 5.175781 L 11.234375 5.167969 L 11.242188 5.160156 L 11.246094 5.152344 L 11.253906 5.140625 L 11.257812 5.132812 L 11.265625 5.125 L 11.269531 5.117188 L 11.277344 5.105469 L 11.28125 5.097656 L 11.289062 5.089844 L 11.292969 5.078125 L 11.300781 5.070312 L 11.304688 5.0625 L 11.3125 5.050781 L 11.316406 5.042969 L 11.324219 5.03125 L 11.328125 5.023438 L 11.335938 5.011719 L 11.339844 5.003906 L 11.347656 4.992188 L 11.351562 4.984375 L 11.367188 4.960938 L 11.371094 4.953125 L 11.378906 4.941406 L 11.382812 4.929688 L 11.390625 4.921875 L 11.394531 4.910156 L 11.402344 4.898438 L 11.40625 4.890625 L 11.414062 4.878906 L 11.417969 4.867188 L 11.425781 4.855469 L 11.429688 4.847656 L 11.4375 4.835938 L 11.441406 4.824219 L 11.449219 4.8125 L 11.453125 4.800781 L 11.460938 4.789062 L 11.464844 4.777344 L 11.472656 4.769531 L 11.476562 4.757812 L 11.484375 4.746094 L 11.488281 4.734375 L 11.496094 4.722656 L 11.5 4.710938 L 11.515625 4.6875 L 11.519531 4.675781 L 11.527344 4.664062 L 11.53125 4.652344 L 11.539062 4.640625 L 11.542969 4.628906 L 11.550781 4.617188 L 11.554688 4.605469 L 11.5625 4.59375 L 11.566406 4.578125 L 11.574219 4.566406 L 11.578125 4.554688 L 11.585938 4.542969 L 11.589844 4.53125 L 11.597656 4.519531 L 11.601562 4.507812 L 11.609375 4.496094 L 11.613281 4.480469 L 11.621094 4.46875 L 11.625 4.457031 L 11.632812 4.445312 L 11.636719 4.433594 L 11.644531 4.421875 L 11.652344 4.40625 L 11.65625 4.394531 L 11.664062 4.382812 L 11.667969 4.371094 L 11.675781 4.359375 L 11.679688 4.347656 L 11.6875 4.332031 L 11.691406 4.320312 L 11.699219 4.308594 L 11.703125 4.296875 L 11.710938 4.28125 L 11.714844 4.269531 L 11.722656 4.257812 L 11.726562 4.246094 L 11.734375 4.234375 L 11.738281 4.21875 L 11.746094 4.207031 L 11.75 4.195312 L 11.757812 4.183594 L 11.761719 4.171875 L 11.769531 4.15625 L 11.773438 4.144531 L 11.789062 4.121094 L 11.792969 4.109375 L 11.800781 4.09375 L 11.804688 4.082031 L 11.8125 4.070312 L 11.816406 4.058594 L 11.824219 4.046875 L 11.828125 4.03125 L 11.835938 4.019531 L 11.839844 4.007812 L 11.847656 3.996094 L 11.851562 3.984375 L 11.859375 3.972656 L 11.863281 3.960938 L 11.871094 3.945312 L 11.875 3.933594 L 11.882812 3.921875 L 11.886719 3.910156 L 11.894531 3.898438 L 11.898438 3.886719 L 11.90625 3.875 L 11.910156 3.863281 L 11.917969 3.851562 L 11.921875 3.839844 L 11.929688 3.824219 L 11.9375 3.8125 L 11.941406 3.800781 L 11.949219 3.789062 L 11.953125 3.777344 L 11.960938 3.765625 L 11.964844 3.753906 L 11.972656 3.742188 L 11.976562 3.734375 L 11.984375 3.722656 L 11.988281 3.710938 L 11.996094 3.699219 L 12 3.6875 L 12.007812 3.675781 L 12.011719 3.664062 L 12.019531 3.652344 L 12.023438 3.640625 L 12.03125 3.632812 L 12.035156 3.621094 L 12.042969 3.609375 L 12.046875 3.597656 L 12.054688 3.585938 L 12.058594 3.578125 L 12.074219 3.554688 L 12.078125 3.546875 L 12.085938 3.535156 L 12.089844 3.523438 L 12.097656 3.515625 L 12.101562 3.503906 L 12.109375 3.492188 L 12.113281 3.484375 L 12.121094 3.472656 L 12.125 3.464844 L 12.132812 3.453125 L 12.136719 3.445312 L 12.144531 3.433594 L 12.148438 3.425781 L 12.15625 3.414062 L 12.160156 3.40625 L 12.167969 3.394531 L 12.171875 3.386719 L 12.179688 3.378906 L 12.183594 3.367188 L 12.191406 3.359375 L 12.195312 3.351562 L 12.203125 3.339844 L 12.210938 3.332031 L 12.214844 3.324219 L 12.222656 3.316406 L 12.226562 3.308594 L 12.234375 3.296875 L 12.238281 3.289062 L 12.246094 3.28125 L 12.25 3.273438 L 12.257812 3.265625 L 12.261719 3.257812 L 12.269531 3.25 L 12.273438 3.242188 L 12.28125 3.234375 L 12.285156 3.226562 L 12.292969 3.21875 L 12.296875 3.210938 L 12.316406 3.191406 L 12.320312 3.183594 L 12.339844 3.164062 L 12.34375 3.15625 L 12.351562 3.152344 L 12.359375 3.144531 L 12.363281 3.136719 L 12.371094 3.132812 L 12.375 3.125 L 12.382812 3.121094 L 12.386719 3.113281 L 12.394531 3.109375 L 12.398438 3.101562 L 12.40625 3.097656 L 12.421875 3.082031 L 12.429688 3.078125 L 12.445312 3.0625 L 12.453125 3.058594 L 12.457031 3.054688 L 12.464844 3.050781 L 12.46875 3.046875 L 12.476562 3.042969 L 12.480469 3.039062 L 12.496094 3.03125 L 12.5 3.027344 L 12.507812 3.023438 L 12.511719 3.019531 L 12.519531 3.015625 L 12.523438 3.015625 L 12.53125 3.011719 L 12.535156 3.007812 L 12.542969 3.003906 L 12.546875 3.003906 L 12.554688 3 L 12.558594 3 L 12.566406 2.996094 L 12.570312 2.992188 L 12.582031 2.992188 L 12.589844 2.988281 L 12.59375 2.988281 L 12.601562 2.984375 L 12.613281 2.984375 L 12.617188 2.980469 L 12.648438 2.980469 L 12.65625 2.976562 L 12.679688 2.976562 L 12.683594 2.980469 L 12.714844 2.980469 L 12.71875 2.984375 L 12.730469 2.984375 L 12.738281 2.988281 L 12.742188 2.988281 L 12.75 2.992188 L 12.761719 2.992188 L 12.765625 2.996094 L 12.773438 3 L 12.78125 3 L 12.785156 3.003906 L 12.792969 3.003906 L 12.796875 3.007812 L 12.804688 3.011719 L 12.808594 3.015625 L 12.816406 3.015625 L 12.820312 3.019531 L 12.828125 3.023438 L 12.832031 3.027344 L 12.839844 3.03125 L 12.84375 3.035156 L 12.851562 3.039062 L 12.855469 3.042969 L 12.863281 3.046875 L 12.867188 3.050781 L 12.875 3.054688 L 12.878906 3.058594 L 12.886719 3.0625 L 12.890625 3.066406 L 12.898438 3.070312 L 12.902344 3.078125 L 12.917969 3.085938 L 12.921875 3.09375 L 12.929688 3.097656 L 12.988281 3.15625 L 12.992188 3.164062 L 13 3.167969 L 13.003906 3.175781 L 13.011719 3.183594 L 13.015625 3.191406 L 13.023438 3.195312 L 13.027344 3.203125 L 13.035156 3.210938 L 13.039062 3.21875 L 13.054688 3.234375 L 13.058594 3.242188 L 13.066406 3.25 L 13.070312 3.257812 L 13.078125 3.265625 L 13.082031 3.273438 L 13.089844 3.28125 L 13.09375 3.289062 L 13.101562 3.296875 L 13.105469 3.304688 L 13.113281 3.316406 L 13.117188 3.324219 L 13.125 3.332031 L 13.128906 3.339844 L 13.136719 3.347656 L 13.140625 3.359375 L 13.148438 3.367188 L 13.152344 3.375 L 13.160156 3.386719 L 13.164062 3.394531 L 13.171875 3.40625 L 13.175781 3.414062 L 13.183594 3.421875 L 13.1875 3.433594 L 13.195312 3.441406 L 13.203125 3.453125 L 13.207031 3.460938 L 13.214844 3.472656 L 13.21875 3.484375 L 13.226562 3.492188 L 13.230469 3.503906 L 13.238281 3.511719 L 13.242188 3.523438 L 13.25 3.535156 L 13.253906 3.542969 L 13.261719 3.554688 L 13.265625 3.566406 L 13.273438 3.574219 L 13.277344 3.585938 L 13.285156 3.597656 L 13.289062 3.609375 L 13.296875 3.621094 L 13.300781 3.628906 L 13.308594 3.640625 L 13.3125 3.652344 L 13.320312 3.664062 L 13.324219 3.675781 L 13.339844 3.699219 L 13.34375 3.707031 L 13.351562 3.71875 L 13.355469 3.730469 L 13.363281 3.742188 L 13.367188 3.753906 L 13.375 3.765625 L 13.378906 3.777344 L 13.386719 3.789062 L 13.390625 3.800781 L 13.398438 3.8125 L 13.402344 3.824219 L 13.410156 3.835938 L 13.414062 3.847656 L 13.421875 3.859375 L 13.425781 3.875 L 13.433594 3.886719 L 13.4375 3.898438 L 13.445312 3.910156 L 13.449219 3.921875 L 13.457031 3.933594 L 13.460938 3.945312 L 13.476562 3.96875 L 13.480469 3.984375 L 13.488281 3.996094 L 13.492188 4.007812 L 13.5 4.019531 L 13.503906 4.03125 L 13.511719 4.042969 L 13.515625 4.058594 L 13.523438 4.070312 L 13.527344 4.082031 L 13.535156 4.09375 L 13.539062 4.105469 L 13.546875 4.121094 L 13.550781 4.132812 L 13.558594 4.144531 L 13.5625 4.15625 L 13.570312 4.167969 L 13.574219 4.183594 L 13.582031 4.195312 L 13.585938 4.207031 L 13.59375 4.21875 L 13.597656 4.230469 L 13.605469 4.246094 L 13.609375 4.257812 L 13.625 4.28125 L 13.628906 4.292969 L 13.636719 4.308594 L 13.640625 4.320312 L 13.648438 4.332031 L 13.652344 4.34375 L 13.660156 4.359375 L 13.664062 4.371094 L 13.671875 4.382812 L 13.675781 4.394531 L 13.683594 4.40625 L 13.6875 4.417969 L 13.695312 4.433594 L 13.699219 4.445312 L 13.707031 4.457031 L 13.710938 4.46875 L 13.71875 4.480469 L 13.722656 4.492188 L 13.730469 4.507812 L 13.734375 4.519531 L 13.742188 4.53125 L 13.746094 4.542969 L 13.761719 4.566406 L 13.765625 4.578125 L 13.773438 4.589844 L 13.777344 4.601562 L 13.785156 4.613281 L 13.789062 4.628906 L 13.796875 4.640625 L 13.800781 4.652344 L 13.808594 4.664062 L 13.8125 4.675781 L 13.820312 4.6875 L 13.824219 4.699219 L 13.832031 4.710938 L 13.835938 4.722656 L 13.84375 4.734375 L 13.847656 4.746094 L 13.855469 4.753906 L 13.859375 4.765625 L 13.867188 4.777344 L 13.871094 4.789062 L 13.878906 4.800781 L 13.882812 4.8125 L 13.898438 4.835938 L 13.902344 4.84375 L 13.910156 4.855469 L 13.914062 4.867188 L 13.921875 4.878906 L 13.925781 4.886719 L 13.933594 4.898438 L 13.9375 4.910156 L 13.945312 4.921875 L 13.949219 4.929688 L 13.957031 4.941406 L 13.960938 4.953125 L 13.96875 4.960938 L 13.972656 4.972656 L 13.980469 4.980469 L 13.984375 4.992188 L 13.992188 5.003906 L 13.996094 5.011719 L 14.003906 5.023438 L 14.007812 5.03125 L 14.015625 5.042969 L 14.019531 5.050781 L 14.027344 5.058594 L 14.03125 5.070312 L 14.039062 5.078125 L 14.046875 5.089844 L 14.050781 5.097656 L 14.058594 5.105469 L 14.0625 5.117188 L 14.070312 5.125 L 14.074219 5.132812 L 14.082031 5.140625 L 14.085938 5.152344 L 14.09375 5.160156 L 14.097656 5.167969 L 14.105469 5.175781 L 14.109375 5.183594 L 14.117188 5.191406 L 14.121094 5.199219 L 14.128906 5.207031 L 14.132812 5.214844 L 14.140625 5.222656 L 14.144531 5.230469 L 14.152344 5.238281 L 14.15625 5.246094 L 14.164062 5.253906 L 14.167969 5.261719 L 14.195312 5.289062 L 14.199219 5.296875 L 14.207031 5.300781 L 14.210938 5.308594 L 14.230469 5.328125 L 14.234375 5.335938 L 14.242188 5.339844 L 14.246094 5.347656 L 14.253906 5.351562 L 14.257812 5.359375 L 14.265625 5.363281 L 14.28125 5.378906 L 14.289062 5.382812 L 14.292969 5.390625 L 14.300781 5.394531 L 14.304688 5.398438 L 14.320312 5.40625 L 14.335938 5.421875 L 14.34375 5.425781 L 14.347656 5.429688 L 14.355469 5.433594 L 14.359375 5.4375 L 14.367188 5.4375 L 14.371094 5.441406 L 14.378906 5.445312 L 14.382812 5.449219 L 14.390625 5.453125 L 14.394531 5.457031 L 14.402344 5.457031 L 14.40625 5.460938 L 14.414062 5.464844 L 14.417969 5.464844 L 14.425781 5.46875 L 14.429688 5.46875 L 14.4375 5.472656 L 14.441406 5.472656 L 14.449219 5.476562 L 14.453125 5.476562 L 14.460938 5.480469 L 14.46875 5.480469 L 14.472656 5.484375 L 14.492188 5.484375 L 14.496094 5.488281 L 14.566406 5.488281 L 14.574219 5.484375 L 14.589844 5.484375 L 14.597656 5.480469 L 14.609375 5.480469 L 14.617188 5.476562 L 14.621094 5.476562 L 14.628906 5.472656 L 14.632812 5.472656 L 14.640625 5.46875 L 14.644531 5.46875 L 14.652344 5.464844 L 14.65625 5.460938 L 14.664062 5.460938 L 14.667969 5.457031 L 14.675781 5.453125 L 14.679688 5.449219 L 14.6875 5.449219 L 14.691406 5.445312 L 14.699219 5.441406 L 14.703125 5.4375 L 14.710938 5.433594 L 14.714844 5.429688 L 14.722656 5.425781 L 14.726562 5.421875 L 14.742188 5.414062 L 14.746094 5.410156 L 14.753906 5.40625 L 14.757812 5.398438 L 14.765625 5.394531 L 14.769531 5.390625 L 14.777344 5.386719 L 14.804688 5.359375 L 14.8125 5.355469 L 14.816406 5.347656 L 14.824219 5.34375 L 14.828125 5.335938 L 14.835938 5.332031 L 14.839844 5.324219 L 14.859375 5.304688 L 14.863281 5.296875 L 14.871094 5.292969 L 14.875 5.285156 L 14.902344 5.257812 L 14.90625 5.25 L 14.914062 5.242188 L 14.917969 5.234375 L 14.925781 5.226562 L 14.929688 5.21875 L 14.9375 5.210938 L 14.941406 5.203125 L 14.949219 5.195312 L 14.953125 5.1875 L 14.960938 5.179688 L 14.964844 5.171875 L 14.972656 5.164062 L 14.976562 5.152344 L 14.984375 5.144531 L 14.988281 5.136719 L 14.996094 5.128906 L 15 5.117188 L 15.007812 5.109375 L 15.011719 5.101562 L 15.019531 5.09375 L 15.027344 5.082031 L 15.03125 5.074219 L 15.039062 5.0625 L 15.042969 5.054688 L 15.050781 5.046875 L 15.054688 5.035156 L 15.0625 5.027344 L 15.066406 5.015625 L 15.074219 5.007812 L 15.078125 4.996094 L 15.085938 4.984375 L 15.089844 4.976562 L 15.097656 4.964844 L 15.101562 4.957031 L 15.109375 4.945312 L 15.113281 4.933594 L 15.121094 4.925781 L 15.125 4.914062 L 15.132812 4.902344 L 15.136719 4.894531 L 15.144531 4.882812 L 15.148438 4.871094 L 15.164062 4.847656 L 15.167969 4.839844 L 15.175781 4.828125 L 15.179688 4.816406 L 15.1875 4.804688 L 15.191406 4.792969 L 15.199219 4.78125 L 15.203125 4.769531 L 15.210938 4.761719 L 15.214844 4.75 L 15.222656 4.738281 L 15.226562 4.726562 L 15.234375 4.714844 L 15.238281 4.703125 L 15.246094 4.691406 L 15.25 4.679688 L 15.257812 4.667969 L 15.261719 4.65625 L 15.269531 4.644531 L 15.273438 4.632812 L 15.28125 4.621094 L 15.285156 4.609375 L 15.292969 4.597656 L 15.296875 4.582031 L 15.3125 4.558594 L 15.316406 4.546875 L 15.324219 4.535156 L 15.328125 4.523438 L 15.335938 4.511719 L 15.339844 4.5 L 15.347656 4.484375 L 15.351562 4.472656 L 15.359375 4.460938 L 15.363281 4.449219 L 15.371094 4.4375 L 15.375 4.425781 L 15.382812 4.414062 L 15.386719 4.398438 L 15.394531 4.386719 L 15.398438 4.375 L 15.40625 4.363281 L 15.410156 4.351562 L 15.417969 4.335938 L 15.421875 4.324219 L 15.429688 4.3125 L 15.433594 4.300781 L 15.441406 4.289062 L 15.449219 4.273438 L 15.453125 4.261719 L 15.460938 4.25 L 15.464844 4.238281 "/>
<path style="fill:none;stroke-width:0.9;stroke-linecap:round;stroke-linejoin:round;stroke:rgb(0%,0%,0%);stroke-opacity:1;stroke-miterlimit:10;" d="M 0.53125 11.765625 L 0.546875 11.742188 L 0.550781 11.730469 L 0.558594 11.714844 L 0.5625 11.703125 L 0.570312 11.691406 L 0.574219 11.679688 L 0.582031 11.667969 L 0.585938 11.652344 L 0.59375 11.640625 L 0.597656 11.628906 L 0.605469 11.617188 L 0.609375 11.605469 L 0.617188 11.589844 L 0.621094 11.578125 L 0.628906 11.566406 L 0.632812 11.554688 L 0.640625 11.542969 L 0.644531 11.53125 L 0.652344 11.515625 L 0.65625 11.503906 L 0.664062 11.492188 L 0.667969 11.480469 L 0.683594 11.457031 L 0.6875 11.445312 L 0.695312 11.429688 L 0.699219 11.417969 L 0.707031 11.40625 L 0.710938 11.394531 L 0.71875 11.382812 L 0.722656 11.371094 L 0.730469 11.359375 L 0.734375 11.347656 L 0.742188 11.335938 L 0.746094 11.324219 L 0.753906 11.3125 L 0.757812 11.300781 L 0.765625 11.289062 L 0.769531 11.277344 L 0.777344 11.265625 L 0.78125 11.253906 L 0.789062 11.242188 L 0.792969 11.230469 L 0.800781 11.21875 L 0.804688 11.210938 L 0.820312 11.1875 L 0.824219 11.175781 L 0.832031 11.164062 L 0.835938 11.152344 L 0.84375 11.144531 L 0.847656 11.132812 L 0.855469 11.121094 L 0.859375 11.109375 L 0.867188 11.097656 L 0.871094 11.089844 L 0.878906 11.078125 L 0.882812 11.066406 L 0.890625 11.058594 L 0.894531 11.046875 L 0.902344 11.035156 L 0.90625 11.027344 L 0.914062 11.015625 L 0.917969 11.007812 L 0.925781 10.996094 L 0.929688 10.988281 L 0.9375 10.976562 L 0.941406 10.96875 L 0.949219 10.957031 L 0.953125 10.949219 L 0.960938 10.9375 L 0.96875 10.929688 L 0.972656 10.917969 L 0.980469 10.910156 L 0.984375 10.902344 L 0.992188 10.890625 L 0.996094 10.882812 L 1.003906 10.875 L 1.007812 10.867188 L 1.015625 10.855469 L 1.019531 10.847656 L 1.027344 10.839844 L 1.03125 10.832031 L 1.039062 10.824219 L 1.042969 10.816406 L 1.050781 10.808594 L 1.054688 10.796875 L 1.0625 10.789062 L 1.066406 10.78125 L 1.085938 10.761719 L 1.089844 10.753906 L 1.105469 10.738281 L 1.109375 10.730469 L 1.128906 10.710938 L 1.132812 10.703125 L 1.152344 10.683594 L 1.15625 10.675781 L 1.164062 10.671875 L 1.167969 10.664062 L 1.175781 10.660156 L 1.179688 10.652344 L 1.1875 10.648438 L 1.191406 10.640625 L 1.199219 10.636719 L 1.214844 10.621094 L 1.222656 10.617188 L 1.226562 10.609375 L 1.242188 10.601562 L 1.246094 10.597656 L 1.253906 10.59375 L 1.257812 10.585938 L 1.265625 10.582031 L 1.269531 10.578125 L 1.277344 10.574219 L 1.28125 10.570312 L 1.289062 10.566406 L 1.292969 10.5625 L 1.300781 10.558594 L 1.304688 10.558594 L 1.3125 10.554688 L 1.316406 10.550781 L 1.324219 10.546875 L 1.328125 10.542969 L 1.335938 10.542969 L 1.339844 10.539062 L 1.347656 10.535156 L 1.351562 10.535156 L 1.359375 10.53125 L 1.363281 10.527344 L 1.371094 10.527344 L 1.375 10.523438 L 1.390625 10.523438 L 1.394531 10.519531 L 1.402344 10.519531 L 1.40625 10.515625 L 1.425781 10.515625 L 1.429688 10.511719 L 1.5 10.511719 L 1.507812 10.515625 L 1.527344 10.515625 L 1.53125 10.519531 L 1.542969 10.519531 L 1.550781 10.523438 L 1.554688 10.523438 L 1.5625 10.527344 L 1.566406 10.527344 L 1.574219 10.53125 L 1.578125 10.535156 L 1.585938 10.535156 L 1.589844 10.539062 L 1.597656 10.542969 L 1.601562 10.542969 L 1.609375 10.546875 L 1.613281 10.550781 L 1.621094 10.554688 L 1.625 10.554688 L 1.632812 10.558594 L 1.636719 10.5625 L 1.644531 10.566406 L 1.648438 10.570312 L 1.664062 10.578125 L 1.667969 10.582031 L 1.675781 10.585938 L 1.679688 10.589844 L 1.6875 10.59375 L 1.691406 10.601562 L 1.699219 10.605469 L 1.703125 10.609375 L 1.710938 10.613281 L 1.714844 10.621094 L 1.722656 10.625 L 1.792969 10.695312 L 1.796875 10.703125 L 1.804688 10.707031 L 1.8125 10.714844 L 1.816406 10.722656 L 1.824219 10.730469 L 1.828125 10.738281 L 1.835938 10.742188 L 1.839844 10.75 L 1.847656 10.757812 L 1.851562 10.765625 L 1.859375 10.773438 L 1.863281 10.78125 L 1.871094 10.789062 L 1.875 10.796875 L 1.882812 10.804688 L 1.886719 10.8125 L 1.894531 10.820312 L 1.898438 10.832031 L 1.90625 10.839844 L 1.910156 10.847656 L 1.917969 10.855469 L 1.921875 10.863281 L 1.929688 10.875 L 1.933594 10.882812 L 1.949219 10.898438 L 1.953125 10.910156 L 1.960938 10.917969 L 1.964844 10.929688 L 1.972656 10.9375 L 1.976562 10.945312 L 1.984375 10.957031 L 1.988281 10.964844 L 1.996094 10.976562 L 2 10.984375 L 2.007812 10.996094 L 2.011719 11.003906 L 2.019531 11.015625 L 2.023438 11.023438 L 2.03125 11.035156 L 2.035156 11.046875 L 2.042969 11.054688 L 2.046875 11.066406 L 2.054688 11.078125 L 2.058594 11.085938 L 2.066406 11.097656 L 2.070312 11.109375 L 2.078125 11.121094 L 2.085938 11.128906 L 2.089844 11.140625 L 2.097656 11.152344 L 2.101562 11.164062 L 2.109375 11.175781 L 2.113281 11.183594 L 2.121094 11.195312 L 2.125 11.207031 L 2.132812 11.21875 L 2.136719 11.230469 L 2.144531 11.242188 L 2.148438 11.253906 L 2.15625 11.265625 L 2.160156 11.277344 L 2.167969 11.289062 L 2.171875 11.300781 L 2.179688 11.3125 L 2.183594 11.324219 L 2.191406 11.335938 L 2.195312 11.347656 L 2.203125 11.359375 L 2.207031 11.371094 L 2.214844 11.382812 L 2.21875 11.394531 L 2.234375 11.417969 L 2.238281 11.429688 L 2.246094 11.441406 L 2.25 11.453125 L 2.257812 11.464844 L 2.261719 11.476562 L 2.269531 11.492188 L 2.273438 11.503906 L 2.28125 11.515625 L 2.285156 11.527344 L 2.292969 11.539062 L 2.296875 11.550781 L 2.304688 11.566406 L 2.308594 11.578125 L 2.316406 11.589844 L 2.320312 11.601562 L 2.328125 11.613281 L 2.332031 11.625 L 2.339844 11.640625 L 2.34375 11.652344 L 2.351562 11.664062 L 2.355469 11.675781 L 2.363281 11.6875 L 2.371094 11.703125 L 2.375 11.714844 L 2.382812 11.726562 L 2.386719 11.738281 L 2.394531 11.75 L 2.398438 11.765625 L 2.40625 11.777344 L 2.410156 11.789062 L 2.417969 11.800781 L 2.421875 11.816406 L 2.429688 11.828125 L 2.433594 11.839844 L 2.441406 11.851562 L 2.445312 11.863281 L 2.453125 11.878906 L 2.457031 11.890625 L 2.464844 11.902344 L 2.46875 11.914062 L 2.476562 11.925781 L 2.480469 11.941406 L 2.488281 11.953125 L 2.492188 11.964844 L 2.507812 11.988281 L 2.511719 12 L 2.519531 12.015625 L 2.523438 12.027344 L 2.53125 12.039062 L 2.535156 12.050781 L 2.542969 12.0625 L 2.546875 12.074219 L 2.554688 12.085938 L 2.558594 12.097656 L 2.566406 12.113281 L 2.570312 12.125 L 2.578125 12.136719 L 2.582031 12.148438 L 2.589844 12.160156 L 2.59375 12.171875 L 2.601562 12.183594 L 2.605469 12.195312 L 2.613281 12.207031 L 2.617188 12.21875 L 2.625 12.230469 L 2.628906 12.242188 L 2.636719 12.253906 L 2.640625 12.265625 L 2.65625 12.289062 L 2.660156 12.300781 L 2.667969 12.3125 L 2.671875 12.320312 L 2.679688 12.332031 L 2.683594 12.34375 L 2.691406 12.355469 L 2.695312 12.367188 L 2.703125 12.378906 L 2.707031 12.386719 L 2.714844 12.398438 L 2.71875 12.410156 L 2.726562 12.421875 L 2.730469 12.433594 L 2.738281 12.441406 L 2.742188 12.453125 L 2.75 12.464844 L 2.753906 12.472656 L 2.761719 12.484375 L 2.765625 12.496094 L 2.773438 12.503906 L 2.777344 12.515625 L 2.785156 12.523438 L 2.792969 12.535156 L 2.796875 12.542969 L 2.804688 12.554688 L 2.808594 12.5625 L 2.816406 12.574219 L 2.820312 12.582031 L 2.828125 12.59375 L 2.832031 12.601562 L 2.839844 12.613281 L 2.84375 12.621094 L 2.851562 12.628906 L 2.855469 12.640625 L 2.863281 12.648438 L 2.867188 12.65625 L 2.875 12.664062 L 2.878906 12.675781 L 2.886719 12.683594 L 2.890625 12.691406 L 2.898438 12.699219 L 2.902344 12.707031 L 2.910156 12.714844 L 2.914062 12.726562 L 2.929688 12.742188 L 2.933594 12.75 L 2.941406 12.757812 L 2.945312 12.765625 L 2.964844 12.785156 L 2.96875 12.792969 L 2.976562 12.800781 L 2.980469 12.808594 L 3 12.828125 L 3.003906 12.835938 L 3.011719 12.839844 L 3.015625 12.847656 L 3.070312 12.902344 L 3.078125 12.90625 L 3.09375 12.921875 L 3.101562 12.925781 L 3.117188 12.941406 L 3.125 12.945312 L 3.128906 12.949219 L 3.136719 12.953125 L 3.140625 12.957031 L 3.148438 12.960938 L 3.152344 12.964844 L 3.160156 12.96875 L 3.164062 12.972656 L 3.171875 12.976562 L 3.175781 12.980469 L 3.183594 12.980469 L 3.1875 12.984375 L 3.195312 12.988281 L 3.199219 12.992188 L 3.207031 12.992188 L 3.214844 12.996094 L 3.21875 13 L 3.226562 13 L 3.230469 13.003906 L 3.238281 13.003906 L 3.242188 13.007812 L 3.25 13.007812 L 3.253906 13.011719 L 3.261719 13.011719 L 3.265625 13.015625 L 3.277344 13.015625 L 3.285156 13.019531 L 3.3125 13.019531 L 3.320312 13.023438 L 3.351562 13.023438 L 3.355469 13.019531 L 3.378906 13.019531 L 3.386719 13.015625 L 3.398438 13.015625 L 3.402344 13.011719 L 3.414062 13.011719 L 3.421875 13.007812 L 3.425781 13.007812 L 3.433594 13.003906 L 3.4375 13.003906 L 3.445312 13 L 3.449219 12.996094 L 3.457031 12.996094 L 3.460938 12.992188 L 3.46875 12.988281 L 3.472656 12.988281 L 3.480469 12.984375 L 3.484375 12.980469 L 3.5 12.972656 L 3.503906 12.96875 L 3.511719 12.964844 L 3.515625 12.964844 L 3.523438 12.960938 L 3.539062 12.945312 L 3.546875 12.941406 L 3.550781 12.9375 L 3.558594 12.933594 L 3.5625 12.929688 L 3.570312 12.925781 L 3.574219 12.917969 L 3.582031 12.914062 L 3.597656 12.898438 L 3.605469 12.894531 L 3.609375 12.886719 L 3.617188 12.882812 L 3.621094 12.875 L 3.628906 12.871094 L 3.648438 12.851562 L 3.652344 12.84375 L 3.660156 12.839844 L 3.664062 12.832031 L 3.671875 12.824219 L 3.675781 12.816406 L 3.683594 12.8125 L 3.6875 12.804688 L 3.695312 12.796875 L 3.699219 12.789062 L 3.707031 12.78125 L 3.710938 12.773438 L 3.71875 12.769531 L 3.722656 12.761719 L 3.730469 12.753906 L 3.734375 12.746094 L 3.742188 12.738281 L 3.746094 12.730469 L 3.753906 12.71875 L 3.757812 12.710938 L 3.773438 12.695312 L 3.777344 12.6875 L 3.785156 12.679688 L 3.789062 12.667969 L 3.796875 12.660156 L 3.800781 12.652344 L 3.808594 12.644531 L 3.8125 12.632812 L 3.820312 12.625 L 3.824219 12.617188 L 3.832031 12.605469 L 3.835938 12.597656 L 3.84375 12.585938 L 3.847656 12.578125 L 3.855469 12.570312 L 3.859375 12.558594 L 3.867188 12.550781 L 3.871094 12.539062 L 3.878906 12.53125 L 3.882812 12.519531 L 3.890625 12.507812 L 3.894531 12.5 L 3.902344 12.488281 L 3.90625 12.480469 L 3.921875 12.457031 L 3.925781 12.449219 L 3.933594 12.4375 L 3.9375 12.425781 L 3.945312 12.414062 L 3.949219 12.40625 L 3.957031 12.394531 L 3.960938 12.382812 L 3.96875 12.371094 L 3.972656 12.359375 L 3.980469 12.351562 L 3.984375 12.339844 L 3.992188 12.328125 L 3.996094 12.316406 L 4.003906 12.304688 L 4.007812 12.292969 L 4.015625 12.28125 L 4.019531 12.269531 L 4.027344 12.257812 L 4.03125 12.246094 L 4.039062 12.234375 L 4.042969 12.222656 L 4.058594 12.199219 L 4.0625 12.1875 L 4.070312 12.175781 L 4.074219 12.164062 L 4.082031 12.152344 L 4.085938 12.140625 L 4.09375 12.128906 L 4.097656 12.117188 L 4.105469 12.105469 L 4.109375 12.09375 L 4.117188 12.082031 L 4.121094 12.070312 L 4.128906 12.054688 L 4.132812 12.042969 L 4.140625 12.03125 L 4.144531 12.019531 L 4.152344 12.007812 L 4.15625 11.996094 L 4.164062 11.984375 L 4.167969 11.96875 L 4.175781 11.957031 L 4.179688 11.945312 L 4.195312 11.921875 L 4.199219 11.910156 L 4.207031 11.894531 L 4.210938 11.882812 L 4.21875 11.871094 L 4.222656 11.859375 L 4.230469 11.847656 L 4.234375 11.832031 L 4.242188 11.820312 L 4.246094 11.808594 L 4.253906 11.796875 L 4.257812 11.78125 L 4.265625 11.769531 L 4.269531 11.757812 L 4.277344 11.746094 L 4.28125 11.734375 L 4.289062 11.71875 L 4.292969 11.707031 L 4.300781 11.695312 L 4.304688 11.683594 L 4.3125 11.671875 L 4.316406 11.65625 L 4.324219 11.644531 L 4.328125 11.632812 L 4.34375 11.609375 L 4.347656 11.59375 L 4.355469 11.582031 L 4.359375 11.570312 L 4.367188 11.558594 L 4.371094 11.546875 L 4.378906 11.535156 L 4.382812 11.519531 L 4.390625 11.507812 L 4.394531 11.496094 L 4.402344 11.484375 L 4.40625 11.472656 L 4.414062 11.460938 L 4.417969 11.449219 L 4.425781 11.433594 L 4.429688 11.421875 L 4.4375 11.410156 L 4.441406 11.398438 L 4.449219 11.386719 L 4.453125 11.375 L 4.460938 11.363281 L 4.464844 11.351562 L 4.480469 11.328125 L 4.484375 11.316406 L 4.492188 11.304688 L 4.496094 11.292969 L 4.503906 11.28125 L 4.507812 11.269531 L 4.515625 11.257812 L 4.519531 11.246094 L 4.527344 11.234375 L 4.53125 11.222656 L 4.539062 11.210938 L 4.542969 11.203125 L 4.550781 11.191406 L 4.554688 11.179688 L 4.5625 11.167969 L 4.566406 11.15625 L 4.574219 11.144531 L 4.578125 11.136719 L 4.585938 11.125 L 4.589844 11.113281 L 4.597656 11.101562 L 4.601562 11.09375 L 4.617188 11.070312 L 4.621094 11.0625 L 4.628906 11.050781 L 4.632812 11.039062 L 4.640625 11.03125 L 4.644531 11.019531 L 4.652344 11.011719 L 4.65625 11 L 4.664062 10.988281 L 4.667969 10.980469 L 4.675781 10.96875 L 4.679688 10.960938 L 4.6875 10.949219 L 4.691406 10.941406 L 4.699219 10.933594 L 4.703125 10.921875 L 4.710938 10.914062 L 4.714844 10.90625 L 4.722656 10.894531 L 4.726562 10.886719 L 4.734375 10.878906 L 4.738281 10.867188 L 4.746094 10.859375 L 4.75 10.851562 L 4.765625 10.835938 L 4.769531 10.824219 L 4.777344 10.816406 L 4.78125 10.808594 L 4.789062 10.800781 L 4.792969 10.792969 L 4.800781 10.785156 L 4.804688 10.777344 L 4.8125 10.769531 L 4.816406 10.761719 L 4.824219 10.753906 L 4.828125 10.746094 L 4.835938 10.742188 L 4.839844 10.734375 L 4.847656 10.726562 L 4.851562 10.71875 L 4.871094 10.699219 L 4.875 10.691406 L 4.882812 10.6875 L 4.886719 10.679688 L 4.894531 10.671875 L 4.902344 10.667969 L 4.90625 10.660156 L 4.914062 10.65625 L 4.917969 10.648438 L 4.925781 10.644531 L 4.929688 10.636719 L 4.9375 10.632812 L 4.953125 10.617188 L 4.960938 10.613281 L 4.964844 10.605469 L 4.972656 10.601562 L 4.976562 10.597656 L 4.984375 10.59375 L 4.988281 10.589844 L 4.996094 10.585938 L 5 10.582031 L 5.007812 10.578125 L 5.011719 10.574219 L 5.019531 10.570312 L 5.023438 10.566406 L 5.039062 10.558594 L 5.042969 10.554688 L 5.050781 10.550781 L 5.054688 10.546875 L 5.0625 10.546875 L 5.066406 10.542969 L 5.074219 10.539062 L 5.078125 10.535156 L 5.085938 10.535156 L 5.089844 10.53125 L 5.097656 10.53125 L 5.101562 10.527344 L 5.109375 10.527344 L 5.113281 10.523438 L 5.121094 10.523438 L 5.125 10.519531 L 5.136719 10.519531 L 5.144531 10.515625 L 5.15625 10.515625 L 5.160156 10.511719 L 5.234375 10.511719 L 5.238281 10.515625 L 5.257812 10.515625 L 5.261719 10.519531 L 5.273438 10.519531 L 5.28125 10.523438 L 5.285156 10.523438 L 5.292969 10.527344 L 5.296875 10.527344 L 5.304688 10.53125 L 5.308594 10.53125 L 5.324219 10.539062 L 5.328125 10.539062 L 5.335938 10.542969 L 5.339844 10.546875 L 5.347656 10.546875 L 5.351562 10.550781 L 5.359375 10.554688 L 5.363281 10.558594 L 5.371094 10.5625 L 5.375 10.566406 L 5.382812 10.570312 L 5.386719 10.574219 L 5.394531 10.578125 L 5.398438 10.582031 L 5.40625 10.585938 L 5.410156 10.589844 L 5.417969 10.59375 L 5.421875 10.597656 L 5.429688 10.601562 L 5.433594 10.609375 L 5.441406 10.613281 L 5.453125 10.625 L 5.460938 10.628906 L 5.519531 10.6875 L 5.523438 10.695312 L 5.53125 10.699219 L 5.535156 10.707031 L 5.554688 10.726562 L 5.558594 10.734375 L 5.566406 10.742188 L 5.570312 10.75 L 5.578125 10.757812 L 5.582031 10.765625 L 5.589844 10.773438 L 5.59375 10.78125 L 5.601562 10.785156 L 5.609375 10.796875 L 5.613281 10.804688 L 5.621094 10.8125 L 5.625 10.820312 L 5.632812 10.828125 L 5.636719 10.835938 L 5.644531 10.84375 L 5.648438 10.851562 L 5.65625 10.863281 L 5.660156 10.871094 L 5.667969 10.878906 L 5.671875 10.886719 L 5.679688 10.898438 L 5.683594 10.90625 L 5.691406 10.914062 L 5.695312 10.925781 L 5.703125 10.933594 L 5.707031 10.945312 L 5.714844 10.953125 L 5.71875 10.960938 L 5.726562 10.972656 L 5.730469 10.980469 L 5.738281 10.992188 L 5.746094 11 L 5.75 11.011719 L 5.757812 11.023438 L 5.761719 11.03125 L 5.769531 11.042969 L 5.773438 11.050781 L 5.78125 11.0625 L 5.785156 11.074219 L 5.792969 11.082031 L 5.796875 11.09375 L 5.804688 11.105469 L 5.808594 11.117188 L 5.816406 11.125 L 5.820312 11.136719 L 5.828125 11.148438 L 5.832031 11.160156 L 5.839844 11.171875 L 5.84375 11.179688 L 5.851562 11.191406 L 5.855469 11.203125 L 5.863281 11.214844 L 5.867188 11.226562 L 5.882812 11.25 L 5.886719 11.261719 L 5.894531 11.273438 L 5.898438 11.285156 L 5.90625 11.296875 L 5.910156 11.308594 L 5.917969 11.320312 L 5.921875 11.332031 L 5.929688 11.34375 L 5.933594 11.355469 L 5.941406 11.367188 L 5.945312 11.378906 L 5.953125 11.390625 L 5.957031 11.402344 L 5.964844 11.414062 L 5.96875 11.425781 L 5.976562 11.4375 L 5.980469 11.449219 L 5.988281 11.460938 L 5.992188 11.472656 L 6 11.488281 L 6.003906 11.5 L 6.011719 11.511719 L 6.015625 11.523438 L 6.03125 11.546875 L 6.035156 11.558594 L 6.042969 11.574219 L 6.046875 11.585938 L 6.054688 11.597656 L 6.058594 11.609375 L 6.066406 11.621094 L 6.070312 11.636719 L 6.078125 11.648438 L 6.082031 11.660156 L 6.089844 11.671875 L 6.09375 11.683594 L 6.101562 11.699219 L 6.105469 11.710938 L 6.113281 11.722656 L 6.117188 11.734375 L 6.125 11.746094 L 6.128906 11.761719 L 6.136719 11.773438 L 6.140625 11.785156 L 6.148438 11.796875 L 6.152344 11.8125 L 6.167969 11.835938 L 6.171875 11.847656 L 6.179688 11.859375 L 6.183594 11.875 L 6.191406 11.886719 L 6.195312 11.898438 L 6.203125 11.910156 L 6.207031 11.921875 L 6.214844 11.9375 L 6.21875 11.949219 L 6.226562 11.960938 L 6.230469 11.972656 L 6.238281 11.984375 L 6.242188 11.996094 L 6.25 12.011719 L 6.253906 12.023438 L 6.261719 12.035156 L 6.265625 12.046875 L 6.273438 12.058594 L 6.277344 12.070312 L 6.285156 12.082031 L 6.289062 12.09375 L 6.296875 12.109375 L 6.304688 12.121094 L 6.308594 12.132812 L 6.316406 12.144531 L 6.320312 12.15625 L 6.328125 12.167969 L 6.332031 12.179688 L 6.339844 12.191406 L 6.34375 12.203125 L 6.351562 12.214844 L 6.355469 12.226562 L 6.363281 12.238281 L 6.367188 12.25 L 6.375 12.261719 L 6.378906 12.273438 L 6.386719 12.285156 L 6.390625 12.296875 L 6.398438 12.308594 L 6.402344 12.316406 L 6.410156 12.328125 L 6.414062 12.339844 L 6.421875 12.351562 L 6.425781 12.363281 L 6.433594 12.375 L 6.4375 12.382812 L 6.453125 12.40625 L 6.457031 12.417969 L 6.464844 12.425781 L 6.46875 12.4375 L 6.476562 12.449219 L 6.480469 12.460938 L 6.488281 12.46875 L 6.492188 12.480469 L 6.5 12.488281 L 6.503906 12.5 L 6.511719 12.511719 L 6.515625 12.519531 L 6.523438 12.53125 L 6.527344 12.539062 L 6.535156 12.550781 L 6.539062 12.558594 L 6.546875 12.570312 L 6.550781 12.578125 L 6.558594 12.585938 L 6.5625 12.597656 L 6.570312 12.605469 L 6.574219 12.617188 L 6.589844 12.632812 L 6.59375 12.640625 L 6.601562 12.652344 L 6.605469 12.660156 L 6.613281 12.667969 L 6.617188 12.675781 L 6.625 12.683594 L 6.628906 12.695312 L 6.636719 12.703125 L 6.640625 12.710938 L 6.648438 12.71875 L 6.652344 12.726562 L 6.660156 12.734375 L 6.664062 12.742188 L 6.671875 12.75 L 6.675781 12.757812 L 6.683594 12.761719 L 6.6875 12.769531 L 6.695312 12.777344 L 6.699219 12.785156 L 6.738281 12.824219 L 6.742188 12.832031 L 6.75 12.835938 L 6.753906 12.84375 L 6.761719 12.847656 L 6.765625 12.855469 L 6.773438 12.859375 L 6.789062 12.875 L 6.796875 12.878906 L 6.8125 12.894531 L 6.820312 12.898438 L 6.824219 12.902344 L 6.832031 12.90625 L 6.835938 12.910156 L 6.84375 12.914062 L 6.847656 12.917969 L 6.855469 12.921875 L 6.859375 12.925781 L 6.867188 12.925781 L 6.875 12.929688 L 6.878906 12.933594 L 6.886719 12.9375 L 6.890625 12.9375 L 6.898438 12.941406 L 6.902344 12.941406 L 6.910156 12.945312 L 6.914062 12.945312 L 6.921875 12.949219 L 6.925781 12.949219 L 6.933594 12.953125 L 6.957031 12.953125 L 6.960938 12.957031 L 6.980469 12.957031 L 6.984375 12.953125 L 7.003906 12.953125 L 7.011719 12.949219 L 7.023438 12.949219 L 7.027344 12.945312 L 7.035156 12.945312 L 7.039062 12.941406 L 7.046875 12.9375 L 7.050781 12.9375 L 7.058594 12.933594 L 7.0625 12.929688 L 7.070312 12.925781 L 7.074219 12.921875 L 7.082031 12.917969 L 7.085938 12.914062 L 7.09375 12.910156 L 7.097656 12.90625 L 7.105469 12.902344 L 7.109375 12.894531 L 7.117188 12.890625 L 7.128906 12.878906 L 7.132812 12.871094 L 7.140625 12.867188 L 7.148438 12.859375 L 7.152344 12.851562 L 7.160156 12.84375 L 7.164062 12.835938 L 7.171875 12.828125 L 7.175781 12.820312 L 7.183594 12.8125 L 7.1875 12.804688 L 7.195312 12.792969 L 7.199219 12.785156 L 7.207031 12.777344 L 7.210938 12.765625 L 7.21875 12.753906 L 7.222656 12.746094 L 7.230469 12.734375 L 7.234375 12.722656 L 7.242188 12.710938 L 7.246094 12.699219 L 7.253906 12.6875 L 7.257812 12.675781 L 7.265625 12.660156 L 7.269531 12.648438 L 7.277344 12.632812 L 7.28125 12.621094 L 7.296875 12.589844 L 7.300781 12.574219 L 7.308594 12.558594 L 7.3125 12.542969 L 7.320312 12.527344 L 7.324219 12.511719 L 7.332031 12.496094 L 7.335938 12.476562 L 7.34375 12.460938 L 7.347656 12.441406 L 7.355469 12.421875 L 7.359375 12.402344 L 7.367188 12.386719 L 7.371094 12.363281 L 7.378906 12.34375 L 7.382812 12.324219 L 7.390625 12.304688 L 7.394531 12.28125 L 7.402344 12.261719 L 7.40625 12.238281 L 7.414062 12.214844 L 7.417969 12.191406 L 7.433594 12.144531 L 7.4375 12.121094 L 7.445312 12.097656 L 7.449219 12.070312 L 7.457031 12.046875 L 7.460938 12.019531 L 7.46875 11.992188 L 7.472656 11.964844 L 7.480469 11.9375 L 7.484375 11.910156 L 7.492188 11.882812 L 7.496094 11.851562 L 7.503906 11.824219 L 7.507812 11.792969 L 7.515625 11.765625 L 7.519531 11.734375 L 7.527344 11.703125 L 7.53125 11.671875 L 7.539062 11.640625 L 7.542969 11.605469 L 7.550781 11.574219 L 7.554688 11.539062 L 7.5625 11.507812 L 7.570312 11.472656 L 7.574219 11.4375 L 7.582031 11.402344 L 7.585938 11.367188 L 7.59375 11.332031 L 7.597656 11.292969 L 7.605469 11.257812 L 7.609375 11.21875 L 7.617188 11.183594 L 7.621094 11.144531 L 7.628906 11.105469 L 7.632812 11.066406 L 7.640625 11.027344 L 7.644531 10.988281 L 7.652344 10.945312 L 7.65625 10.90625 L 7.664062 10.863281 L 7.667969 10.824219 L 7.675781 10.78125 L 7.679688 10.738281 L 7.6875 10.695312 L 7.691406 10.652344 L 7.699219 10.605469 L 7.703125 10.5625 L 7.710938 10.519531 L 7.71875 10.472656 L 7.722656 10.429688 L 7.730469 10.382812 L 7.734375 10.335938 L 7.742188 10.289062 L 7.746094 10.242188 L 7.753906 10.195312 L 7.757812 10.148438 L 7.765625 10.101562 L 7.769531 10.050781 L 7.777344 10.003906 L 7.78125 9.953125 L 7.789062 9.90625 L 7.792969 9.855469 L 7.800781 9.804688 L 7.804688 9.753906 L 7.8125 9.703125 L 7.816406 9.652344 L 7.824219 9.601562 L 7.828125 9.550781 L 7.835938 9.5 L 7.839844 9.445312 L 7.855469 9.34375 L 7.859375 9.289062 L 7.867188 9.238281 L 7.871094 9.183594 L 7.878906 9.128906 L 7.882812 9.078125 L 7.890625 9.023438 L 7.894531 8.96875 L 7.902344 8.914062 L 7.90625 8.859375 L 7.914062 8.808594 L 7.917969 8.753906 L 7.925781 8.699219 L 7.929688 8.644531 L 7.9375 8.589844 L 7.941406 8.535156 L 7.949219 8.476562 L 7.953125 8.421875 L 7.960938 8.367188 L 7.964844 8.3125 L 7.972656 8.257812 L 7.976562 8.203125 L 7.984375 8.144531 L 7.992188 8.089844 L 7.996094 8.035156 L 8.003906 7.980469 L 8.007812 7.925781 L 8.015625 7.867188 L 8.019531 7.8125 L 8.027344 7.757812 L 8.03125 7.703125 L 8.039062 7.648438 L 8.042969 7.59375 L 8.050781 7.535156 L 8.054688 7.480469 L 8.0625 7.425781 L 8.066406 7.371094 L 8.074219 7.316406 L 8.078125 7.261719 L 8.085938 7.207031 L 8.089844 7.152344 L 8.097656 7.097656 L 8.101562 7.046875 L 8.109375 6.992188 L 8.113281 6.9375 L 8.121094 6.882812 L 8.125 6.832031 L 8.132812 6.777344 L 8.140625 6.726562 L 8.144531 6.671875 L 8.152344 6.621094 L 8.15625 6.566406 L 8.164062 6.515625 L 8.167969 6.464844 L 8.175781 6.410156 L 8.179688 6.359375 L 8.1875 6.308594 L 8.191406 6.257812 L 8.199219 6.207031 L 8.203125 6.160156 L 8.210938 6.109375 L 8.214844 6.058594 L 8.222656 6.011719 L 8.226562 5.960938 L 8.234375 5.914062 L 8.238281 5.867188 L 8.246094 5.816406 L 8.25 5.769531 L 8.257812 5.722656 L 8.261719 5.675781 L 8.269531 5.628906 L 8.277344 5.585938 L 8.28125 5.539062 L 8.289062 5.492188 L 8.292969 5.449219 L 8.300781 5.40625 L 8.304688 5.359375 L 8.3125 5.316406 L 8.316406 5.273438 L 8.324219 5.230469 L 8.328125 5.1875 L 8.335938 5.148438 L 8.339844 5.105469 L 8.347656 5.066406 L 8.351562 5.023438 L 8.359375 4.984375 L 8.363281 4.945312 L 8.371094 4.90625 L 8.375 4.867188 L 8.382812 4.828125 L 8.386719 4.789062 L 8.394531 4.753906 L 8.398438 4.714844 L 8.414062 4.644531 L 8.417969 4.605469 L 8.425781 4.570312 L 8.429688 4.535156 L 8.4375 4.503906 L 8.441406 4.46875 L 8.449219 4.433594 L 8.453125 4.402344 L 8.460938 4.371094 L 8.464844 4.335938 L 8.472656 4.304688 L 8.476562 4.273438 L 8.484375 4.246094 L 8.488281 4.214844 L 8.496094 4.183594 L 8.5 4.15625 L 8.507812 4.125 L 8.511719 4.097656 L 8.519531 4.070312 L 8.523438 4.042969 L 8.53125 4.015625 L 8.535156 3.988281 L 8.542969 3.960938 L 8.546875 3.9375 L 8.554688 3.910156 L 8.5625 3.886719 L 8.566406 3.863281 L 8.574219 3.835938 L 8.578125 3.8125 L 8.585938 3.789062 L 8.589844 3.769531 L 8.597656 3.746094 L 8.601562 3.722656 L 8.609375 3.703125 L 8.613281 3.679688 L 8.621094 3.660156 L 8.625 3.640625 L 8.632812 3.621094 L 8.636719 3.601562 L 8.644531 3.582031 L 8.648438 3.5625 L 8.65625 3.546875 L 8.660156 3.527344 L 8.667969 3.511719 L 8.671875 3.492188 L 8.679688 3.476562 L 8.683594 3.460938 L 8.699219 3.429688 L 8.703125 3.414062 L 8.710938 3.398438 L 8.714844 3.382812 L 8.722656 3.371094 L 8.726562 3.355469 L 8.734375 3.34375 L 8.738281 3.328125 L 8.746094 3.316406 L 8.75 3.304688 L 8.757812 3.292969 L 8.761719 3.28125 L 8.769531 3.269531 L 8.773438 3.257812 L 8.78125 3.246094 L 8.785156 3.238281 L 8.792969 3.226562 L 8.796875 3.21875 L 8.804688 3.207031 L 8.808594 3.199219 L 8.816406 3.191406 L 8.820312 3.179688 L 8.835938 3.164062 L 8.839844 3.15625 L 8.847656 3.148438 L 8.851562 3.140625 L 8.859375 3.136719 L 8.863281 3.128906 L 8.886719 3.105469 L 8.894531 3.101562 L 8.898438 3.09375 L 8.90625 3.089844 L 8.910156 3.085938 L 8.917969 3.082031 L 8.921875 3.078125 L 8.929688 3.074219 L 8.933594 3.070312 L 8.941406 3.066406 L 8.945312 3.0625 L 8.953125 3.0625 L 8.957031 3.058594 L 8.964844 3.054688 L 8.96875 3.054688 L 8.976562 3.050781 L 8.988281 3.050781 L 8.996094 3.046875 L 9.011719 3.046875 L 9.019531 3.042969 L 9.035156 3.042969 L 9.042969 3.046875 L 9.066406 3.046875 L 9.070312 3.050781 L 9.082031 3.050781 L 9.089844 3.054688 L 9.09375 3.054688 L 9.101562 3.058594 L 9.105469 3.0625 L 9.113281 3.0625 L 9.121094 3.066406 L 9.125 3.070312 L 9.132812 3.070312 L 9.136719 3.074219 L 9.144531 3.078125 L 9.148438 3.082031 L 9.15625 3.085938 L 9.160156 3.089844 L 9.167969 3.09375 L 9.171875 3.097656 L 9.179688 3.101562 L 9.183594 3.105469 L 9.191406 3.109375 L 9.195312 3.113281 L 9.203125 3.117188 L 9.207031 3.125 L 9.214844 3.128906 L 9.242188 3.15625 L 9.25 3.160156 L 9.257812 3.167969 L 9.261719 3.175781 L 9.269531 3.179688 L 9.273438 3.1875 L 9.28125 3.191406 L 9.285156 3.199219 L 9.292969 3.207031 L 9.296875 3.214844 L 9.304688 3.21875 L 9.308594 3.226562 L 9.316406 3.234375 L 9.320312 3.242188 L 9.328125 3.25 L 9.332031 3.257812 L 9.339844 3.265625 L 9.34375 3.273438 L 9.351562 3.28125 L 9.355469 3.289062 L 9.363281 3.296875 L 9.367188 3.304688 L 9.375 3.3125 L 9.378906 3.320312 L 9.386719 3.328125 L 9.390625 3.335938 L 9.398438 3.347656 L 9.40625 3.355469 L 9.410156 3.363281 L 9.417969 3.371094 L 9.421875 3.382812 L 9.429688 3.390625 L 9.433594 3.398438 L 9.441406 3.410156 L 9.445312 3.417969 L 9.453125 3.429688 L 9.457031 3.4375 L 9.464844 3.449219 L 9.46875 3.457031 L 9.476562 3.46875 L 9.480469 3.476562 L 9.488281 3.488281 L 9.492188 3.496094 L 9.5 3.507812 L 9.503906 3.515625 L 9.511719 3.527344 L 9.515625 3.539062 L 9.523438 3.546875 L 9.527344 3.558594 L 9.542969 3.582031 L 9.546875 3.589844 L 9.554688 3.601562 L 9.558594 3.613281 L 9.566406 3.625 L 9.570312 3.632812 L 9.578125 3.644531 L 9.582031 3.65625 L 9.589844 3.667969 L 9.59375 3.679688 L 9.601562 3.691406 L 9.605469 3.703125 L 9.613281 3.710938 L 9.617188 3.722656 L 9.625 3.734375 L 9.628906 3.746094 L 9.636719 3.757812 L 9.640625 3.769531 L 9.648438 3.78125 L 9.652344 3.792969 L 9.660156 3.804688 L 9.664062 3.816406 L 9.679688 3.839844 L 9.683594 3.851562 L 9.691406 3.863281 L 9.695312 3.878906 L 9.703125 3.890625 L 9.707031 3.902344 L 9.714844 3.914062 L 9.71875 3.925781 L 9.726562 3.9375 L 9.730469 3.949219 L 9.738281 3.960938 L 9.742188 3.972656 L 9.75 3.988281 L 9.753906 4 L 9.761719 4.011719 L 9.765625 4.023438 L 9.773438 4.035156 L 9.777344 4.046875 L 9.785156 4.0625 L 9.789062 4.074219 L 9.796875 4.085938 L 9.800781 4.097656 L 9.808594 4.109375 L 9.8125 4.125 L 9.828125 4.148438 L 9.832031 4.160156 L 9.839844 4.171875 L 9.84375 4.1875 L 9.851562 4.199219 L 9.855469 4.210938 L 9.863281 4.222656 L 9.867188 4.234375 L 9.875 4.25 L 9.878906 4.261719 L 9.886719 4.273438 L 9.890625 4.285156 L 9.898438 4.300781 L 9.902344 4.3125 L 9.910156 4.324219 L 9.914062 4.335938 L 9.921875 4.347656 L 9.925781 4.363281 L 9.933594 4.375 L 9.9375 4.386719 L 9.945312 4.398438 L 9.949219 4.410156 L 9.957031 4.421875 L 9.964844 4.4375 L 9.96875 4.449219 L 9.976562 4.460938 L 9.980469 4.472656 L 9.988281 4.484375 L 9.992188 4.496094 L 10 4.511719 L 10.003906 4.523438 L 10.011719 4.535156 L 10.015625 4.546875 L 10.023438 4.558594 L 10.027344 4.570312 L 10.035156 4.582031 L 10.039062 4.59375 L 10.046875 4.605469 L 10.050781 4.617188 L 10.058594 4.632812 L 10.0625 4.644531 L 10.070312 4.65625 L 10.074219 4.667969 L 10.082031 4.679688 L 10.085938 4.691406 L 10.101562 4.714844 L 10.105469 4.726562 L 10.113281 4.734375 L 10.117188 4.746094 L 10.125 4.757812 L 10.128906 4.769531 L 10.136719 4.78125 L 10.140625 4.792969 L 10.148438 4.804688 L 10.152344 4.816406 L 10.160156 4.828125 L 10.164062 4.835938 L 10.171875 4.847656 L 10.175781 4.859375 L 10.183594 4.871094 L 10.1875 4.882812 L 10.195312 4.890625 L 10.199219 4.902344 L 10.207031 4.914062 L 10.210938 4.921875 L 10.21875 4.933594 L 10.222656 4.945312 L 10.230469 4.953125 L 10.234375 4.964844 L 10.242188 4.976562 L 10.25 4.984375 L 10.253906 4.996094 L 10.261719 5.003906 L 10.265625 5.015625 L 10.273438 5.023438 L 10.277344 5.035156 L 10.285156 5.042969 L 10.289062 5.054688 L 10.296875 5.0625 L 10.300781 5.074219 L 10.308594 5.082031 L 10.3125 5.089844 L 10.320312 5.101562 L 10.324219 5.109375 L 10.332031 5.117188 L 10.335938 5.128906 L 10.34375 5.136719 L 10.347656 5.144531 L 10.355469 5.152344 L 10.359375 5.160156 L 10.367188 5.171875 L 10.371094 5.179688 L 10.386719 5.195312 L 10.390625 5.203125 L 10.398438 5.210938 L 10.402344 5.21875 L 10.410156 5.226562 L 10.414062 5.234375 L 10.421875 5.242188 L 10.425781 5.25 L 10.445312 5.269531 L 10.449219 5.277344 L 10.457031 5.285156 L 10.460938 5.292969 L 10.46875 5.296875 L 10.472656 5.304688 L 10.503906 5.335938 L 10.507812 5.34375 L 10.515625 5.347656 L 10.527344 5.359375 L 10.535156 5.363281 L 10.539062 5.371094 L 10.546875 5.375 L 10.5625 5.390625 L 10.570312 5.394531 L 10.585938 5.410156 L 10.59375 5.414062 L 10.597656 5.417969 L 10.605469 5.421875 L 10.609375 5.425781 L 10.617188 5.429688 L 10.621094 5.433594 L 10.628906 5.4375 L 10.632812 5.441406 L 10.640625 5.445312 L 10.644531 5.445312 L 10.652344 5.449219 L 10.65625 5.453125 L 10.671875 5.460938 L 10.675781 5.460938 L 10.683594 5.464844 L 10.6875 5.464844 L 10.695312 5.46875 L 10.699219 5.472656 L 10.707031 5.472656 L 10.710938 5.476562 L 10.71875 5.476562 L 10.722656 5.480469 L 10.734375 5.480469 L 10.742188 5.484375 L 10.757812 5.484375 L 10.765625 5.488281 L 10.835938 5.488281 L 10.84375 5.484375 L 10.859375 5.484375 L 10.867188 5.480469 L 10.871094 5.480469 L 10.878906 5.476562 L 10.890625 5.476562 L 10.894531 5.472656 L 10.902344 5.46875 L 10.90625 5.46875 L 10.914062 5.464844 L 10.917969 5.464844 L 10.925781 5.460938 L 10.929688 5.457031 L 10.9375 5.457031 L 10.945312 5.453125 L 10.949219 5.449219 L 10.957031 5.445312 L 10.960938 5.441406 L 10.96875 5.441406 L 10.972656 5.4375 L 10.980469 5.433594 L 10.984375 5.429688 L 10.992188 5.425781 L 10.996094 5.421875 L 11.003906 5.417969 L 11.019531 5.402344 L 11.027344 5.398438 L 11.03125 5.394531 L 11.039062 5.390625 L 11.042969 5.382812 L 11.050781 5.378906 L 11.066406 5.363281 L 11.074219 5.359375 L 11.078125 5.351562 L 11.085938 5.347656 L 11.117188 5.316406 L 11.121094 5.308594 L 11.128906 5.304688 L 11.132812 5.296875 L 11.140625 5.289062 L 11.144531 5.28125 L 11.152344 5.277344 L 11.15625 5.269531 L 11.164062 5.261719 L 11.167969 5.253906 L 11.175781 5.246094 L 11.179688 5.238281 L 11.1875 5.230469 L 11.191406 5.222656 L 11.199219 5.214844 L 11.203125 5.207031 L 11.210938 5.199219 L 11.214844 5.191406 L 11.230469 5.175781 L 11.234375 5.167969 L 11.242188 5.160156 L 11.246094 5.152344 L 11.253906 5.140625 L 11.257812 5.132812 L 11.265625 5.125 L 11.269531 5.117188 L 11.277344 5.105469 L 11.28125 5.097656 L 11.289062 5.089844 L 11.292969 5.078125 L 11.300781 5.070312 L 11.304688 5.0625 L 11.3125 5.050781 L 11.316406 5.042969 L 11.324219 5.03125 L 11.328125 5.023438 L 11.335938 5.011719 L 11.339844 5.003906 L 11.347656 4.992188 L 11.351562 4.984375 L 11.367188 4.960938 L 11.371094 4.953125 L 11.378906 4.941406 L 11.382812 4.929688 L 11.390625 4.921875 L 11.394531 4.910156 L 11.402344 4.898438 L 11.40625 4.890625 L 11.414062 4.878906 L 11.417969 4.867188 L 11.425781 4.855469 L 11.429688 4.847656 L 11.4375 4.835938 L 11.441406 4.824219 L 11.449219 4.8125 L 11.453125 4.800781 L 11.460938 4.789062 L 11.464844 4.777344 L 11.472656 4.769531 L 11.476562 4.757812 L 11.484375 4.746094 L 11.488281 4.734375 L 11.496094 4.722656 L 11.5 4.710938 L 11.515625 4.6875 L 11.519531 4.675781 L 11.527344 4.664062 L 11.53125 4.652344 L 11.539062 4.640625 L 11.542969 4.628906 L 11.550781 4.617188 L 11.554688 4.605469 L 11.5625 4.59375 L 11.566406 4.578125 L 11.574219 4.566406 L 11.578125 4.554688 L 11.585938 4.542969 L 11.589844 4.53125 L 11.597656 4.519531 L 11.601562 4.507812 L 11.609375 4.496094 L 11.613281 4.480469 L 11.621094 4.46875 L 11.625 4.457031 L 11.632812 4.445312 L 11.636719 4.433594 L 11.644531 4.421875 L 11.652344 4.40625 L 11.65625 4.394531 L 11.664062 4.382812 L 11.667969 4.371094 L 11.675781 4.359375 L 11.679688 4.347656 L 11.6875 4.332031 L 11.691406 4.320312 L 11.699219 4.308594 L 11.703125 4.296875 L 11.710938 4.28125 L 11.714844 4.269531 L 11.722656 4.257812 L 11.726562 4.246094 L 11.734375 4.234375 L 11.738281 4.21875 L 11.746094 4.207031 L 11.75 4.195312 L 11.757812 4.183594 L 11.761719 4.171875 L 11.769531 4.15625 L 11.773438 4.144531 L 11.789062 4.121094 L 11.792969 4.109375 L 11.800781 4.09375 L 11.804688 4.082031 L 11.8125 4.070312 L 11.816406 4.058594 L 11.824219 4.046875 L 11.828125 4.03125 L 11.835938 4.019531 L 11.839844 4.007812 L 11.847656 3.996094 L 11.851562 3.984375 L 11.859375 3.972656 L 11.863281 3.960938 L 11.871094 3.945312 L 11.875 3.933594 L 11.882812 3.921875 L 11.886719 3.910156 L 11.894531 3.898438 L 11.898438 3.886719 L 11.90625 3.875 L 11.910156 3.863281 L 11.917969 3.851562 L 11.921875 3.839844 L 11.929688 3.824219 L 11.9375 3.8125 L 11.941406 3.800781 L 11.949219 3.789062 L 11.953125 3.777344 L 11.960938 3.765625 L 11.964844 3.753906 L 11.972656 3.742188 L 11.976562 3.734375 L 11.984375 3.722656 L 11.988281 3.710938 L 11.996094 3.699219 L 12 3.6875 L 12.007812 3.675781 L 12.011719 3.664062 L 12.019531 3.652344 L 12.023438 3.640625 L 12.03125 3.632812 L 12.035156 3.621094 L 12.042969 3.609375 L 12.046875 3.597656 L 12.054688 3.585938 L 12.058594 3.578125 L 12.074219 3.554688 L 12.078125 3.546875 L 12.085938 3.535156 L 12.089844 3.523438 L 12.097656 3.515625 L 12.101562 3.503906 L 12.109375 3.492188 L 12.113281 3.484375 L 12.121094 3.472656 L 12.125 3.464844 L 12.132812 3.453125 L 12.136719 3.445312 L 12.144531 3.433594 L 12.148438 3.425781 L 12.15625 3.414062 L 12.160156 3.40625 L 12.167969 3.394531 L 12.171875 3.386719 L 12.179688 3.378906 L 12.183594 3.367188 L 12.191406 3.359375 L 12.195312 3.351562 L 12.203125 3.339844 L 12.210938 3.332031 L 12.214844 3.324219 L 12.222656 3.316406 L 12.226562 3.308594 L 12.234375 3.296875 L 12.238281 3.289062 L 12.246094 3.28125 L 12.25 3.273438 L 12.257812 3.265625 L 12.261719 3.257812 L 12.269531 3.25 L 12.273438 3.242188 L 12.28125 3.234375 L 12.285156 3.226562 L 12.292969 3.21875 L 12.296875 3.210938 L 12.316406 3.191406 L 12.320312 3.183594 L 12.339844 3.164062 L 12.34375 3.15625 L 12.351562 3.152344 L 12.359375 3.144531 L 12.363281 3.136719 L 12.371094 3.132812 L 12.375 3.125 L 12.382812 3.121094 L 12.386719 3.113281 L 12.394531 3.109375 L 12.398438 3.101562 L 12.40625 3.097656 L 12.421875 3.082031 L 12.429688 3.078125 L 12.445312 3.0625 L 12.453125 3.058594 L 12.457031 3.054688 L 12.464844 3.050781 L 12.46875 3.046875 L 12.476562 3.042969 L 12.480469 3.039062 L 12.496094 3.03125 L 12.5 3.027344 L 12.507812 3.023438 L 12.511719 3.019531 L 12.519531 3.015625 L 12.523438 3.015625 L 12.53125 3.011719 L 12.535156 3.007812 L 12.542969 3.003906 L 12.546875 3.003906 L 12.554688 3 L 12.558594 3 L 12.566406 2.996094 L 12.570312 2.992188 L 12.582031 2.992188 L 12.589844 2.988281 L 12.59375 2.988281 L 12.601562 2.984375 L 12.613281 2.984375 L 12.617188 2.980469 L 12.648438 2.980469 L 12.65625 2.976562 L 12.679688 2.976562 L 12.683594 2.980469 L 12.714844 2.980469 L 12.71875 2.984375 L 12.730469 2.984375 L 12.738281 2.988281 L 12.742188 2.988281 L 12.75 2.992188 L 12.761719 2.992188 L 12.765625 2.996094 L 12.773438 3 L 12.78125 3 L 12.785156 3.003906 L 12.792969 3.003906 L 12.796875 3.007812 L 12.804688 3.011719 L 12.808594 3.015625 L 12.816406 3.015625 L 12.820312 3.019531 L 12.828125 3.023438 L 12.832031 3.027344 L 12.839844 3.03125 L 12.84375 3.035156 L 12.851562 3.039062 L 12.855469 3.042969 L 12.863281 3.046875 L 12.867188 3.050781 L 12.875 3.054688 L 12.878906 3.058594 L 12.886719 3.0625 L 12.890625 3.066406 L 12.898438 3.070312 L 12.902344 3.078125 L 12.917969 3.085938 L 12.921875 3.09375 L 12.929688 3.097656 L 12.988281 3.15625 L 12.992188 3.164062 L 13 3.167969 L 13.003906 3.175781 L 13.011719 3.183594 L 13.015625 3.191406 L 13.023438 3.195312 L 13.027344 3.203125 L 13.035156 3.210938 L 13.039062 3.21875 L 13.054688 3.234375 L 13.058594 3.242188 L 13.066406 3.25 L 13.070312 3.257812 L 13.078125 3.265625 L 13.082031 3.273438 L 13.089844 3.28125 L 13.09375 3.289062 L 13.101562 3.296875 L 13.105469 3.304688 L 13.113281 3.316406 L 13.117188 3.324219 L 13.125 3.332031 L 13.128906 3.339844 L 13.136719 3.347656 L 13.140625 3.359375 L 13.148438 3.367188 L 13.152344 3.375 L 13.160156 3.386719 L 13.164062 3.394531 L 13.171875 3.40625 L 13.175781 3.414062 L 13.183594 3.421875 L 13.1875 3.433594 L 13.195312 3.441406 L 13.203125 3.453125 L 13.207031 3.460938 L 13.214844 3.472656 L 13.21875 3.484375 L 13.226562 3.492188 L 13.230469 3.503906 L 13.238281 3.511719 L 13.242188 3.523438 L 13.25 3.535156 L 13.253906 3.542969 L 13.261719 3.554688 L 13.265625 3.566406 L 13.273438 3.574219 L 13.277344 3.585938 L 13.285156 3.597656 L 13.289062 3.609375 L 13.296875 3.621094 L 13.300781 3.628906 L 13.308594 3.640625 L 13.3125 3.652344 L 13.320312 3.664062 L 13.324219 3.675781 L 13.339844 3.699219 L 13.34375 3.707031 L 13.351562 3.71875 L 13.355469 3.730469 L 13.363281 3.742188 L 13.367188 3.753906 L 13.375 3.765625 L 13.378906 3.777344 L 13.386719 3.789062 L 13.390625 3.800781 L 13.398438 3.8125 L 13.402344 3.824219 L 13.410156 3.835938 L 13.414062 3.847656 L 13.421875 3.859375 L 13.425781 3.875 L 13.433594 3.886719 L 13.4375 3.898438 L 13.445312 3.910156 L 13.449219 3.921875 L 13.457031 3.933594 L 13.460938 3.945312 L 13.476562 3.96875 L 13.480469 3.984375 L 13.488281 3.996094 L 13.492188 4.007812 L 13.5 4.019531 L 13.503906 4.03125 L 13.511719 4.042969 L 13.515625 4.058594 L 13.523438 4.070312 L 13.527344 4.082031 L 13.535156 4.09375 L 13.539062 4.105469 L 13.546875 4.121094 L 13.550781 4.132812 L 13.558594 4.144531 L 13.5625 4.15625 L 13.570312 4.167969 L 13.574219 4.183594 L 13.582031 4.195312 L 13.585938 4.207031 L 13.59375 4.21875 L 13.597656 4.230469 L 13.605469 4.246094 L 13.609375 4.257812 L 13.625 4.28125 L 13.628906 4.292969 L 13.636719 4.308594 L 13.640625 4.320312 L 13.648438 4.332031 L 13.652344 4.34375 L 13.660156 4.359375 L 13.664062 4.371094 L 13.671875 4.382812 L 13.675781 4.394531 L 13.683594 4.40625 L 13.6875 4.417969 L 13.695312 4.433594 L 13.699219 4.445312 L 13.707031 4.457031 L 13.710938 4.46875 L 13.71875 4.480469 L 13.722656 4.492188 L 13.730469 4.507812 L 13.734375 4.519531 L 13.742188 4.53125 L 13.746094 4.542969 L 13.761719 4.566406 L 13.765625 4.578125 L 13.773438 4.589844 L 13.777344 4.601562 L 13.785156 4.613281 L 13.789062 4.628906 L 13.796875 4.640625 L 13.800781 4.652344 L 13.808594 4.664062 L 13.8125 4.675781 L 13.820312 4.6875 L 13.824219 4.699219 L 13.832031 4.710938 L 13.835938 4.722656 L 13.84375 4.734375 L 13.847656 4.746094 L 13.855469 4.753906 L 13.859375 4.765625 L 13.867188 4.777344 L 13.871094 4.789062 L 13.878906 4.800781 L 13.882812 4.8125 L 13.898438 4.835938 L 13.902344 4.84375 L 13.910156 4.855469 L 13.914062 4.867188 L 13.921875 4.878906 L 13.925781 4.886719 L 13.933594 4.898438 L 13.9375 4.910156 L 13.945312 4.921875 L 13.949219 4.929688 L 13.957031 4.941406 L 13.960938 4.953125 L 13.96875 4.960938 L 13.972656 4.972656 L 13.980469 4.980469 L 13.984375 4.992188 L 13.992188 5.003906 L 13.996094 5.011719 L 14.003906 5.023438 L 14.007812 5.03125 L 14.015625 5.042969 L 14.019531 5.050781 L 14.027344 5.058594 L 14.03125 5.070312 L 14.039062 5.078125 L 14.046875 5.089844 L 14.050781 5.097656 L 14.058594 5.105469 L 14.0625 5.117188 L 14.070312 5.125 L 14.074219 5.132812 L 14.082031 5.140625 L 14.085938 5.152344 L 14.09375 5.160156 L 14.097656 5.167969 L 14.105469 5.175781 L 14.109375 5.183594 L 14.117188 5.191406 L 14.121094 5.199219 L 14.128906 5.207031 L 14.132812 5.214844 L 14.140625 5.222656 L 14.144531 5.230469 L 14.152344 5.238281 L 14.15625 5.246094 L 14.164062 5.253906 L 14.167969 5.261719 L 14.195312 5.289062 L 14.199219 5.296875 L 14.207031 5.300781 L 14.210938 5.308594 L 14.230469 5.328125 L 14.234375 5.335938 L 14.242188 5.339844 L 14.246094 5.347656 L 14.253906 5.351562 L 14.257812 5.359375 L 14.265625 5.363281 L 14.28125 5.378906 L 14.289062 5.382812 L 14.292969 5.390625 L 14.300781 5.394531 L 14.304688 5.398438 L 14.320312 5.40625 L 14.335938 5.421875 L 14.34375 5.425781 L 14.347656 5.429688 L 14.355469 5.433594 L 14.359375 5.4375 L 14.367188 5.4375 L 14.371094 5.441406 L 14.378906 5.445312 L 14.382812 5.449219 L 14.390625 5.453125 L 14.394531 5.457031 L 14.402344 5.457031 L 14.40625 5.460938 L 14.414062 5.464844 L 14.417969 5.464844 L 14.425781 5.46875 L 14.429688 5.46875 L 14.4375 5.472656 L 14.441406 5.472656 L 14.449219 5.476562 L 14.453125 5.476562 L 14.460938 5.480469 L 14.46875 5.480469 L 14.472656 5.484375 L 14.492188 5.484375 L 14.496094 5.488281 L 14.566406 5.488281 L 14.574219 5.484375 L 14.589844 5.484375 L 14.597656 5.480469 L 14.609375 5.480469 L 14.617188 5.476562 L 14.621094 5.476562 L 14.628906 5.472656 L 14.632812 5.472656 L 14.640625 5.46875 L 14.644531 5.46875 L 14.652344 5.464844 L 14.65625 5.460938 L 14.664062 5.460938 L 14.667969 5.457031 L 14.675781 5.453125 L 14.679688 5.449219 L 14.6875 5.449219 L 14.691406 5.445312 L 14.699219 5.441406 L 14.703125 5.4375 L 14.710938 5.433594 L 14.714844 5.429688 L 14.722656 5.425781 L 14.726562 5.421875 L 14.742188 5.414062 L 14.746094 5.410156 L 14.753906 5.40625 L 14.757812 5.398438 L 14.765625 5.394531 L 14.769531 5.390625 L 14.777344 5.386719 L 14.804688 5.359375 L 14.8125 5.355469 L 14.816406 5.347656 L 14.824219 5.34375 L 14.828125 5.335938 L 14.835938 5.332031 L 14.839844 5.324219 L 14.859375 5.304688 L 14.863281 5.296875 L 14.871094 5.292969 L 14.875 5.285156 L 14.902344 5.257812 L 14.90625 5.25 L 14.914062 5.242188 L 14.917969 5.234375 L 14.925781 5.226562 L 14.929688 5.21875 L 14.9375 5.210938 L 14.941406 5.203125 L 14.949219 5.195312 L 14.953125 5.1875 L 14.960938 5.179688 L 14.964844 5.171875 L 14.972656 5.164062 L 14.976562 5.152344 L 14.984375 5.144531 L 14.988281 5.136719 L 14.996094 5.128906 L 15 5.117188 L 15.007812 5.109375 L 15.011719 5.101562 L 15.019531 5.09375 L 15.027344 5.082031 L 15.03125 5.074219 L 15.039062 5.0625 L 15.042969 5.054688 L 15.050781 5.046875 L 15.054688 5.035156 L 15.0625 5.027344 L 15.066406 5.015625 L 15.074219 5.007812 L 15.078125 4.996094 L 15.085938 4.984375 L 15.089844 4.976562 L 15.097656 4.964844 L 15.101562 4.957031 L 15.109375 4.945312 L 15.113281 4.933594 L 15.121094 4.925781 L 15.125 4.914062 L 15.132812 4.902344 L 15.136719 4.894531 L 15.144531 4.882812 L 15.148438 4.871094 L 15.164062 4.847656 L 15.167969 4.839844 L 15.175781 4.828125 L 15.179688 4.816406 L 15.1875 4.804688 L 15.191406 4.792969 L 15.199219 4.78125 L 15.203125 4.769531 L 15.210938 4.761719 L 15.214844 4.75 L 15.222656 4.738281 L 15.226562 4.726562 L 15.234375 4.714844 L 15.238281 4.703125 L 15.246094 4.691406 L 15.25 4.679688 L 15.257812 4.667969 L 15.261719 4.65625 L 15.269531 4.644531 L 15.273438 4.632812 L 15.28125 4.621094 L 15.285156 4.609375 L 15.292969 4.597656 L 15.296875 4.582031 L 15.3125 4.558594 L 15.316406 4.546875 L 15.324219 4.535156 L 15.328125 4.523438 L 15.335938 4.511719 L 15.339844 4.5 L 15.347656 4.484375 L 15.351562 4.472656 L 15.359375 4.460938 L 15.363281 4.449219 L 15.371094 4.4375 L 15.375 4.425781 L 15.382812 4.414062 L 15.386719 4.398438 L 15.394531 4.386719 L 15.398438 4.375 L 15.40625 4.363281 L 15.410156 4.351562 L 15.417969 4.335938 L 15.421875 4.324219 L 15.429688 4.3125 L 15.433594 4.300781 L 15.441406 4.289062 L 15.449219 4.273438 L 15.453125 4.261719 L 15.460938 4.25 L 15.464844 4.238281 "/>
<path style="fill:none;stroke-width:1.2;stroke-linecap:square;stroke-linejoin:round;stroke:rgb(0%,0%,100%);stroke-opacity:1;stroke-miterlimit:10;" d="M 0.53125 15.53125 L 0.53125 0.46875 "/>
<path style="fill:none;stroke-width:1.2;stroke-linecap:square;stroke-linejoin:round;stroke:rgb(0%,0%,100%);stroke-opacity:1;stroke-miterlimit:10;" d="M 15.46875 15.53125 L 15.46875 0.46875 "/>
<path style="fill:none;stroke-width:1.2;stroke-linecap:square;stroke-linejoin:round;stroke:rgb(0%,0%,100%);stroke-opacity:1;stroke-miterlimit:10;" d="M 0.53125 0.46875 L 15.46875 0.46875 "/>
<path style="fill:none;stroke-width:1.2;stroke-linecap:square;stroke-linejoin:round;stroke:rgb(0%,0%,100%);stroke-opacity:1;stroke-miterlimit:10;" d="M 0.53125 15.53125 L 15.46875 15.53125 "/>
</g>
</svg>
